<svg width="56" height="55" viewBox="0 0 56 55" fill="none" xmlns="http://www.w3.org/2000/svg">
<g clip-path="url(#clip0)">
<path d="M52.6996 14.4495L30.0282 0.713454C28.4735 -0.237452 26.5405 -0.237452 24.9857 0.713454L2.31441 14.4495C0.866024 15.3338 9.99885e-07 16.8767 9.99885e-07 18.5733C-0.00107347 20.272 0.863875 21.8161 2.31334 22.7014L24.9857 36.6523C26.5437 37.6022 28.4692 37.6022 30.0272 36.6523L52.6985 22.7014C54.1479 21.815 55.014 20.271 55.0118 18.5733C55.0129 16.8767 54.1469 15.3338 52.6996 14.4495Z" fill="#FF6666"/>
<path d="M54.1759 25.5767L31.7087 39.403C29.0977 40.9954 25.8539 40.9589 23.3085 39.4062L0.837014 25.5778C0.315895 26.3568 9.99885e-07 26.1902 9.99885e-07 27.1691C-0.00107347 28.8678 0.863875 30.4118 2.31334 31.2972L24.9857 45.2481C26.5437 46.198 28.4692 46.198 30.0272 45.2481L52.6985 31.2972C54.1479 30.4108 55.014 29.9412 55.0118 28.2436C55.0129 27.2647 54.697 26.3557 54.1759 25.5767Z" fill="#336699"/>
<path d="M54.1759 34.1724L31.7087 47.9987C29.1224 49.5771 25.8969 49.5782 23.3085 48.0019L0.837014 34.1724C0.315895 34.9514 9.99885e-07 35.2286 9.99885e-07 36.2075C-0.00107347 37.9062 0.863875 39.4502 2.31334 40.3356L24.9857 54.2865C26.5437 55.2363 28.4692 55.2363 30.0272 54.2865L52.6985 40.3356C54.1479 39.4491 55.014 37.9051 55.0118 36.2075C55.0129 35.2286 54.697 34.9514 54.1759 34.1724Z" fill="#FF6666"/>
</g>
<defs>
<clipPath id="clip0">
<rect width="55.0129" height="55" fill="white"/>
</clipPath>
</defs>
</svg>
