<svg width="180" height="30" viewBox="0 0 180 30" fill="none" xmlns="http://www.w3.org/2000/svg">
<path fill-rule="evenodd" clip-rule="evenodd" d="M57.6001 17.2391C57.6001 19.7858 55.5146 21.6469 52.6346 21.6469C49.7546 21.6469 47.6691 19.7858 47.6691 17.2391V7.83594H45.6829V17.3371C45.6829 20.6674 48.5629 23.5079 52.6346 23.5079C56.7063 23.5079 59.5863 20.5694 59.5863 17.3371V7.83594H57.6001V17.2391ZM73.887 7.83594H68.5242V23.5079H73.887C78.356 23.5079 81.4346 20.4715 81.4346 15.6719C81.4346 10.9703 78.356 7.83594 73.887 7.83594V7.83594ZM73.6884 21.5489H70.5104V9.79494H73.6884C77.0649 9.79494 79.4484 12.0478 79.4484 15.6719C79.4484 19.5899 76.9656 21.451 73.6884 21.5489V21.5489ZM117.186 21.8428C113.611 21.8428 111.228 19.1981 111.228 15.6719C111.228 12.1457 113.71 9.59904 117.186 9.59904C119.967 9.59904 121.655 11.1662 121.655 11.1662L122.45 9.79494C122.45 9.79494 120.662 7.93389 116.988 7.93389C112.221 7.93389 109.241 11.4601 109.241 15.6719C109.241 19.9817 112.32 23.6059 117.186 23.6059C120.96 23.6059 122.847 21.0592 122.847 21.0592L121.755 19.8838C121.655 19.7858 120.166 21.8428 117.186 21.8428V21.8428ZM132.083 7.83594H134.069V23.5079H132.083V7.83594ZM143.007 9.79494H147.973V23.5079H149.959V9.79494H154.924V7.83594H143.007V9.79494ZM173.595 7.83594L168.828 14.9863L163.961 7.83594H161.876L167.835 16.5535V23.5079H169.821V16.5535L175.68 7.83594L173.595 7.83594ZM94.2456 7.83594L88.0884 23.5079H90.0746L91.7629 19.0022L98.218 17.6309L100.403 23.5079H102.389L96.3311 7.83594H94.2456L94.2456 7.83594ZM92.3587 17.1412L95.338 9.89289H95.4374L97.9201 16.0637L92.3587 17.1412V17.1412Z" fill="#2E3D49"/>
<path fill-rule="evenodd" clip-rule="evenodd" d="M29 0.5L30 1V14C30 19.5519 27.1103 22.6957 24.0048 24.0999L24.0094 24.1L16.3884 28.4886C16.3297 28.5231 16.2707 28.5571 16.2115 28.5905L16.1251 28.6402L16.1269 28.6377C14.4829 29.5459 12.6847 30 11 30C6 30 0 26 0 18V6L2 7V18C2 26 8 28 11 28C12.8587 28 15.869 27.2323 17.8904 24.7455C14.1817 23.8726 10 20.6787 10 14V2.2L2 7L0 6L10 0L11 0.5L12 1V14C12 20.94 16.5153 22.6121 19.0175 22.9334C19.6258 21.6216 20 19.9979 20 18V5L22 6V18C22 19.8526 21.6782 21.4908 21.1216 22.9144C23.6482 22.5492 28 20.8131 28 14V2.25L22 6L20 5L28 0L29 0.5Z" fill="#02B3E4"/>
</svg>
