<svg width="101" height="30" viewBox="0 0 101 30" fill="none" xmlns="http://www.w3.org/2000/svg">
<g clip-path="url(#clip0)">
<path d="M27.4767 18.9466C25.8452 18.9466 24.3164 18.2558 22.9273 17.1313L23.2656 15.5439L23.2803 15.485C23.5815 13.7948 24.5369 10.9578 27.4767 10.9578C29.6815 10.9578 31.4748 12.7511 31.4748 14.9558C31.4673 17.1533 29.6742 18.9466 27.4767 18.9466V18.9466ZM27.4767 6.90837C23.7211 6.90837 20.8109 9.34837 19.6277 13.3611C17.8197 10.6492 16.4527 7.39347 15.6517 4.6521H11.6095V15.169C11.6095 17.2415 9.91913 18.9317 7.84659 18.9317C5.77404 18.9317 4.08385 17.2415 4.08385 15.169V4.6521H0.0413059V15.169C0.0266 19.4758 3.53228 23.0107 7.83894 23.0107C12.1458 23.0107 15.6515 19.4758 15.6515 15.169V13.4052C16.4377 15.0441 17.4005 16.6976 18.5691 18.1676L16.0923 29.8088H20.2301L22.0232 21.3645C23.596 22.3713 25.404 23.0035 27.4766 23.0035C31.9081 23.0035 35.5167 19.3729 35.5167 14.9411C35.5167 10.5168 31.9081 6.90837 27.4766 6.90837H27.4767Z" fill="#6FDA44"/>
<path d="M47.8561 7.364L50.4651 17.8809L53.3388 7.364H56.7635L52.3466 22.5624H48.9217L46.21 11.9793L43.5053 22.555H40.0806L35.6633 7.35675H39.0882L41.9617 17.8736L44.5708 7.35675H47.8559V7.3642L47.8561 7.364ZM64.958 6.90832C60.5117 6.90832 56.9105 10.5167 56.9105 14.9558C56.9105 19.4022 60.519 23.0034 64.958 23.0034C69.4044 23.0034 73.0129 19.4022 73.0129 14.9558C73.0129 10.5095 69.4044 6.90832 64.958 6.90832ZM64.958 19.6962C62.3417 19.6962 60.225 17.5795 60.225 14.9632C60.225 12.3467 62.349 10.2303 64.958 10.2303C67.5744 10.2303 69.6909 12.3467 69.6909 14.9632C69.6909 17.5722 67.5744 19.6962 64.958 19.6962ZM82.7948 10.7667C80.4946 10.7667 78.6352 12.6334 78.6352 14.9264V22.555H75.1882V7.364H78.6352V9.70106C78.6352 9.70106 80.105 7.35655 83.1256 7.35655H84.1838V10.7667H82.7948V10.7667ZM94.3628 14.3679C96.8099 12.9862 98.4711 10.3624 98.4711 7.35655H95.024C95.024 9.89204 92.9664 11.9499 90.4309 11.9499H89.9677V0.0292969H86.5211V22.5548H89.9677V15.3967H90.3795C90.7175 15.3967 91.1585 15.6173 91.357 15.8891L96.2515 22.555H100.382L94.3628 14.3679V14.3679Z" fill="black"/>
</g>
<defs>
<clipPath id="clip0">
<rect width="100.402" height="30" fill="white"/>
</clipPath>
</defs>
</svg>
