<svg width="116" height="30" viewBox="0 0 116 30" fill="none" xmlns="http://www.w3.org/2000/svg">
<g clip-path="url(#clip0)">
<path d="M0 0C0.188301 0.0120192 0.380609 0.0360577 0.56891 0.0360577C4.34295 0.0400641 8.12099 0.0360577 11.895 0.0360577C12.0793 0.0360577 12.2636 0.0360577 12.516 0.0360577C12.4359 0.260417 12.3878 0.408654 12.3277 0.552885C8.28926 10.1963 4.2508 19.8357 0.208333 29.4752C0.148237 29.6234 0.068109 29.7596 0 29.9038C0 19.9359 0 9.96795 0 0Z" fill="black"/>
<path d="M19.6955 29.9999C19.6033 29.7155 19.5232 29.427 19.415 29.1466C18.786 27.544 18.137 25.9455 17.516 24.3389C17.3998 24.0344 17.2476 23.9302 16.9191 23.9342C15.3205 23.9503 13.7179 23.9423 12.1194 23.9423C11.9471 23.9423 11.7748 23.9423 11.5144 23.9423C13.3373 19.6554 15.1362 15.4326 16.9751 11.1057C19.6674 17.4679 22.3237 23.7339 24.9759 29.9999C23.2171 29.9999 21.4583 29.9999 19.6955 29.9999Z" fill="black"/>
<path d="M21.4263 0.064209C25.637 0.064209 29.7436 0.064209 33.8902 0.064209C33.8902 9.94402 33.8902 19.7958 33.8902 29.6516C33.8702 29.6596 33.8502 29.6676 33.8261 29.6756C29.7035 19.8278 25.5769 9.98007 21.4263 0.064209Z" fill="black"/>
<path d="M93.8421 11.2059C95.1522 10.9214 96.3702 10.8373 97.6002 11.1057C100.208 11.6786 102.027 13.782 102.204 16.4423C102.488 20.677 99.8117 23.806 95.5288 24.2147C93.9062 24.3709 92.3037 24.2147 90.7252 23.782C90.3646 23.6818 90.2444 23.5056 90.2444 23.141C90.2524 17.504 90.2524 11.8669 90.2444 6.22591C90.2444 5.86533 90.3205 5.70908 90.7211 5.7211C91.6186 5.74915 92.516 5.74113 93.4094 5.72511C93.742 5.71709 93.8542 5.83328 93.8502 6.16581C93.8341 7.65219 93.8421 9.13456 93.8462 10.6209C93.8421 10.7972 93.8421 10.9695 93.8421 11.2059ZM93.8421 17.6642C93.8421 18.6858 93.8662 19.7075 93.8301 20.7291C93.8181 21.1618 93.9984 21.266 94.379 21.298C97.1434 21.5104 98.9663 19.5112 98.5296 16.7267C98.2812 15.1402 97.3958 14.1746 95.9415 14.0184C95.3806 13.9583 94.7997 14.0544 94.2268 14.0865C93.9303 14.1025 93.8301 14.2588 93.8341 14.5592C93.8502 15.5889 93.8421 16.6265 93.8421 17.6642Z" fill="black"/>
<path d="M69.6955 10.9134C69.6955 9.40303 69.6955 7.90463 69.6955 6.40623C69.6955 5.73315 69.6955 5.73315 70.3726 5.73315C71.3141 5.73315 72.2556 5.73315 73.2773 5.73315C73.2773 5.97755 73.2773 6.17787 73.2773 6.37819C73.2813 11.5024 73.2853 16.6266 73.2893 21.7508C73.2893 21.9912 73.3013 22.2316 73.3173 22.4679C73.3734 23.1971 73.3774 23.2011 72.7124 23.4455C70.7733 24.1586 68.7781 24.4631 66.7228 24.1666C63.0489 23.6418 61.0657 20.9134 61.3622 17.1835C61.6306 13.8141 64.0505 11.4343 67.476 11.0376C68.1891 10.9535 68.9103 10.9535 69.6955 10.9134ZM69.6955 17.5641C69.6955 16.5424 69.6795 15.5208 69.7036 14.5032C69.7116 14.1186 69.5794 13.9743 69.2068 13.9263C67.6843 13.7219 66.1058 14.4511 65.4447 15.6931C64.7196 17.0473 64.8999 19.1707 65.8854 20.1963C66.218 20.5408 66.6627 20.8694 67.1114 20.9816C67.7925 21.1498 68.5257 21.1418 69.2348 21.1779C69.5874 21.1979 69.7116 20.9936 69.7036 20.629C69.6795 19.6074 69.6955 18.5857 69.6955 17.5641Z" fill="black"/>
<path d="M60.9576 24.0224C60.0481 24.0224 59.2348 24.0344 58.4255 24.0184C56.9191 23.9903 57.3157 24.2748 56.7989 22.8525C56.5024 22.0432 56.222 21.2299 55.9616 20.4086C55.8654 20.1001 55.7292 19.9799 55.3927 19.9839C53.6659 20 51.9351 20 50.2084 19.9839C49.8919 19.9799 49.7636 20.1001 49.6715 20.3846C49.339 21.4503 48.9744 22.508 48.6459 23.5737C48.5457 23.9022 48.3854 24.0384 48.0329 24.0304C47.2316 24.0104 46.4343 24.0264 45.633 24.0224C45.0321 24.0224 45.008 23.9903 45.2044 23.4294C46.5465 19.5713 47.8846 15.7131 49.2268 11.8549C49.4872 11.1017 49.7797 10.3565 50.004 9.5913C50.2124 8.89418 50.3726 8.17704 50.5128 7.45989C50.5649 7.20348 50.6411 7.10332 50.9015 7.10733C52.1475 7.11534 53.3975 7.12335 54.6435 7.10332C55.012 7.09931 55.0441 7.35172 55.1242 7.58409C56.1859 10.5609 57.2436 13.5376 58.3013 16.5144C59.1186 18.8141 59.9359 21.1137 60.7572 23.4174C60.8173 23.5777 60.8654 23.7419 60.9576 24.0224ZM50.7693 16.7508C52.1515 16.7508 53.4696 16.7508 54.8478 16.7508C54.1627 14.5472 53.4936 12.3918 52.7965 10.1602C52.1074 12.3918 51.4463 14.5472 50.7693 16.7508Z" fill="black"/>
<path d="M75.3606 17.5921C75.4688 14.8918 76.4664 12.6362 79.1306 11.4863C82.6803 9.9559 87.8165 11.3982 88.105 17.1714C88.2052 19.1746 87.7444 21.0336 86.2701 22.488C84.367 24.367 82.0433 24.6554 79.5874 23.9463C77.2476 23.2692 76.0297 21.5224 75.5329 19.2187C75.4848 19.0024 75.4527 18.778 75.4327 18.5577C75.4007 18.2572 75.3846 17.9527 75.3606 17.5921ZM84.4672 17.4118C84.4672 16.6105 84.2628 15.7372 83.8702 15.1122C82.9047 13.5697 80.7532 13.4896 79.7116 14.9599C78.754 16.3061 78.758 18.8942 79.7156 20.2363C80.8133 21.7748 83.0289 21.6506 83.9383 19.996C84.343 19.2628 84.4712 18.4655 84.4672 17.4118Z" fill="black"/>
<path d="M107.356 18.5417C107.34 19.5954 107.989 20.4968 109.05 20.9175C110.16 21.3582 111.31 21.3302 112.456 21.1379C113.065 21.0377 113.662 20.8494 114.323 20.6851C114.323 21.5585 114.335 22.4279 114.307 23.2973C114.303 23.4055 114.123 23.5618 113.994 23.5978C113.277 23.8102 112.56 24.0746 111.823 24.1707C110.373 24.359 108.91 24.363 107.508 23.8502C105.096 22.9728 103.97 21.1138 103.694 18.6819C103.494 16.9071 103.79 15.2084 104.76 13.6699C106.354 11.1339 109.876 10.1403 112.544 11.5265C114.295 12.4359 115.164 13.9504 115.264 15.9015C115.296 16.5225 115.272 17.1475 115.268 17.7685C115.26 18.3895 115.208 18.4656 114.583 18.4736C112.376 18.5057 110.168 18.5177 107.961 18.5377C107.76 18.5417 107.556 18.5417 107.356 18.5417ZM107.336 15.9976C107.408 16.0137 107.484 16.0457 107.56 16.0457C108.882 16.0457 110.208 16.0297 111.53 16.0457C111.979 16.0497 112.027 15.8534 111.955 15.4848C111.731 14.347 110.781 13.6739 109.507 13.7741C108.321 13.8662 107.376 14.8238 107.336 15.9976Z" fill="black"/>
<path d="M93.8422 17.6644C93.8422 16.6267 93.8502 15.5891 93.8342 14.5514C93.8302 14.2509 93.9304 14.0947 94.2268 14.0787C94.7998 14.0466 95.3807 13.9505 95.9416 14.0106C97.3959 14.1708 98.2813 15.1364 98.5297 16.7189C98.9664 19.5033 97.1435 21.5025 94.3791 21.2902C93.9945 21.2622 93.8142 21.158 93.8302 20.7213C93.8623 19.7077 93.8422 18.686 93.8422 17.6644Z" fill="white"/>
<path d="M69.6956 17.5641C69.6956 18.5858 69.6795 19.6074 69.7036 20.625C69.7116 20.9896 69.5874 21.1939 69.2348 21.1739C68.5217 21.1378 67.7925 21.1499 67.1114 20.9776C66.6627 20.8654 66.218 20.5369 65.8855 20.1923C64.8959 19.1667 64.7196 17.0433 65.4448 15.6891C66.1098 14.4471 67.6843 13.718 69.2068 13.9223C69.5794 13.9744 69.7156 14.1146 69.7036 14.4992C69.6795 15.5249 69.6956 16.5465 69.6956 17.5641Z" fill="white"/>
<path d="M50.7693 16.7507C51.4464 14.5472 52.1114 12.3917 52.7965 10.1602C53.4896 12.3917 54.1587 14.5472 54.8478 16.7507C53.4656 16.7507 52.1515 16.7507 50.7693 16.7507Z" fill="white"/>
<path d="M84.4671 17.4118C84.4711 18.4655 84.3429 19.2628 83.9423 19.996C83.0288 21.6506 80.8173 21.7708 79.7195 20.2363C78.762 18.8942 78.758 16.3061 79.7155 14.9599C80.7572 13.4896 82.9086 13.5697 83.8742 15.1122C84.2628 15.7372 84.4671 16.6105 84.4671 17.4118Z" fill="white"/>
<path d="M107.336 15.9975C107.376 14.8237 108.317 13.8621 109.503 13.774C110.777 13.6778 111.731 14.3509 111.951 15.4847C112.023 15.8533 111.975 16.0496 111.526 16.0456C110.204 16.0296 108.878 16.0456 107.556 16.0456C107.484 16.0456 107.408 16.0136 107.336 15.9975Z" fill="white"/>
</g>
<defs>
<clipPath id="clip0">
<rect width="115.288" height="30" fill="white"/>
</clipPath>
</defs>
</svg>
