<svg width="89" height="30" viewBox="0 0 89 30" fill="none" xmlns="http://www.w3.org/2000/svg">
<g style="mix-blend-mode:darken">
<g style="mix-blend-mode:darken">
<g style="mix-blend-mode:darken">
<path d="M37.7667 15.3847C37.7667 19.5488 34.5091 22.6173 30.5113 22.6173C26.5135 22.6173 23.2559 19.5488 23.2559 15.3847C23.2559 11.1912 26.5135 8.1521 30.5113 8.1521C34.5091 8.1521 37.7667 11.1912 37.7667 15.3847ZM34.5906 15.3847C34.5906 12.7825 32.7026 11.0021 30.5113 11.0021C28.32 11.0021 26.4319 12.7825 26.4319 15.3847C26.4319 17.9608 28.32 19.7673 30.5113 19.7673C32.7026 19.7673 34.5906 17.9575 34.5906 15.3847Z" fill="#0D0C22"/>
</g>
<g style="mix-blend-mode:darken">
<path d="M53.4191 15.3847C53.4191 19.5488 50.1615 22.6173 46.1636 22.6173C42.1658 22.6173 38.9082 19.5488 38.9082 15.3847C38.9082 11.1945 42.1658 8.1521 46.1636 8.1521C50.1615 8.1521 53.4191 11.1912 53.4191 15.3847ZM50.243 15.3847C50.243 12.7825 48.3549 11.0021 46.1636 11.0021C43.9723 11.0021 42.0843 12.7825 42.0843 15.3847C42.0843 17.9608 43.9723 19.7673 46.1636 19.7673C48.3549 19.7673 50.243 17.9575 50.243 15.3847Z" fill="#0D0C22"/>
</g>
<g style="mix-blend-mode:darken">
<path d="M68.418 8.58906V21.5738C68.418 26.9151 65.268 29.0967 61.544 29.0967C58.0386 29.0967 55.9288 26.7521 55.1332 24.8347L57.8984 23.6836C58.3908 24.8608 59.5973 26.2499 61.5408 26.2499C63.9245 26.2499 65.4016 24.7793 65.4016 22.0108V20.9706H65.2908C64.5799 21.8478 63.2103 22.6141 61.4821 22.6141C57.8658 22.6141 54.5527 19.4641 54.5527 15.4108C54.5527 11.3282 57.8658 8.1521 61.4821 8.1521C63.2071 8.1521 64.5767 8.9184 65.2908 9.76949H65.4016V8.59232H68.418V8.58906ZM65.6266 15.4108C65.6266 12.8641 63.9277 11.0021 61.7658 11.0021C59.5745 11.0021 57.7386 12.8641 57.7386 15.4108C57.7386 17.9314 59.5745 19.7673 61.7658 19.7673C63.9277 19.7673 65.6266 17.9314 65.6266 15.4108Z" fill="#0D0C22"/>
</g>
<g style="mix-blend-mode:darken">
<path d="M73.3908 0.978271V22.1739H70.293V0.978271H73.3908Z" fill="#0D0C22"/>
</g>
<g style="mix-blend-mode:darken">
<path d="M85.4627 17.7652L87.9279 19.4087C87.1322 20.5859 85.2148 22.6141 81.9018 22.6141C77.7931 22.6141 74.7246 19.4381 74.7246 15.3815C74.7246 11.0804 77.8192 8.14893 81.5464 8.14893C85.2996 8.14893 87.1355 11.1359 87.7355 12.75L88.0648 13.5718L78.3964 17.5761C79.1366 19.0272 80.2877 19.7674 81.9018 19.7674C83.5192 19.7674 84.6409 18.9718 85.4627 17.7652ZM77.8746 15.1631L84.3377 12.4794C83.9822 11.5761 82.9127 10.9468 81.654 10.9468C80.0398 10.9468 77.7931 12.3718 77.8746 15.1631Z" fill="#0D0C22"/>
</g>
<g style="mix-blend-mode:darken">
<path d="M11.5289 13.5033V10.4348H21.8691C21.9702 10.9696 22.0224 11.6022 22.0224 12.287C22.0224 14.5892 21.393 17.4359 19.3648 19.4642C17.3919 21.5185 14.8713 22.6142 11.5321 22.6142C5.34302 22.6142 0.138672 17.5729 0.138672 11.3838C0.138672 5.19462 5.34302 0.15332 11.5321 0.15332C14.9561 0.15332 17.3952 1.4968 19.2278 3.24789L17.0626 5.4131C15.7485 4.18049 13.968 3.2218 11.5289 3.2218C7.00932 3.2218 3.47454 6.86419 3.47454 11.3838C3.47454 15.9033 7.00932 19.5457 11.5289 19.5457C14.4604 19.5457 16.13 18.3685 17.1995 17.299C18.0669 16.4316 18.6376 15.1925 18.8626 13.5001L11.5289 13.5033Z" fill="#0D0C22"/>
</g>
</g>
</g>
</svg>
