<svg width="73" height="55" viewBox="0 0 73 55" fill="none" xmlns="http://www.w3.org/2000/svg">
<g clip-path="url(#clip0)">
<path d="M9.75192 25.7976L12.8789 10.1611C13.2372 8.37116 15.5504 7.84647 16.6463 9.30631L25.9089 21.6564C27.3786 23.617 25.5605 24.074 19.4673 31.589C11.3937 27.6298 9.23005 28.4069 9.75192 25.7976Z" fill="#336699"/>
<path d="M52.8913 31.589C46.7642 24.2348 44.7994 23.6677 46.3086 21.6564L55.5712 9.30631C56.6657 7.84647 58.9803 8.37116 59.3386 10.1611L62.4656 25.7976C63.0086 28.5184 60.3936 27.83 52.8913 31.589Z" fill="#336699"/>
<path d="M68.8347 17.3404L53.6848 28.6086L37.9453 1.06491C37.5405 0.355439 36.8268 0 36.1103 0C35.3952 0 34.6786 0.355439 34.2724 1.06491L18.5315 28.6086L3.38305 17.3404C1.7878 16.1542 -0.418178 17.6366 0.0698458 19.5604L5.85279 42.3086L9.68081 44.6119L6.92616 46.5386L8.67232 53.4062C8.91069 54.3427 9.75557 55 10.7232 55H61.4946C62.4621 55 63.307 54.3427 63.5454 53.4062L65.2915 46.5386L63.6103 44.4229L66.3663 42.3072L72.1493 19.559C72.6373 17.6323 70.4271 16.157 68.8347 17.3404Z" fill="#FF6666"/>
<path d="M44.2678 32.7569L37.922 22.1797C37.5102 21.4942 36.8106 21.1529 36.1096 21.1529C35.4072 21.1529 34.7033 21.497 34.2943 22.1797L27.9486 32.7569C27.5466 33.4268 27.5466 34.2647 27.9486 34.9346L34.2943 45.5118C34.7062 46.1973 35.4086 46.5386 36.1096 46.5386C36.8106 46.5372 37.513 46.193 37.922 45.5118L44.2678 34.9346C44.6698 34.2647 44.6698 33.4268 44.2678 32.7569Z" fill="white"/>
<path d="M21.2996 44.4228C21.2996 45.5907 20.3518 46.5385 19.1839 46.5385H6.92549L5.85071 42.3071H19.1839C20.3518 42.3071 21.2996 43.255 21.2996 44.4228Z" fill="#336699"/>
<path d="M66.3642 42.3071L65.2894 46.5385H53.031C51.8631 46.5385 50.9153 45.5907 50.9153 44.4228C50.9153 43.255 51.8631 42.3071 53.031 42.3071H66.3642Z" fill="#336699"/>
</g>
<defs>
<clipPath id="clip0">
<rect width="72.2162" height="55" fill="white"/>
</clipPath>
</defs>
</svg>
