<svg width="72" height="72" viewBox="0 0 72 72" fill="none" xmlns="http://www.w3.org/2000/svg">
<g clip-path="url(#clip0)">
<path d="M58.9091 0V12.5149H43.6233V33.5913L25.9898 12.5149H13.0909V58.9091H0V0H58.9091Z" fill="#FF6666"/>
<path d="M58.9091 12.5149V58.9091H46.0102L28.3767 37.8327V58.9091H13.0909V12.5149H25.9898L43.6232 33.5913V12.5149H58.9091Z" fill="#FF6666"/>
<path d="M72 12.5149V71.424H13.0909V58.9091H28.3767V37.8327L46.0102 58.9091H58.9091V12.5149H72Z" fill="#336699"/>
<path d="M58.9091 12.5149V58.9091H46.0102L28.3767 37.8327V58.9091H13.0909V12.5149H25.9898L43.6232 33.5913V12.5149H58.9091Z" fill="#336699"/>
<path d="M43.6233 12.5149V33.5913L25.9899 12.5149H13.1346V58.9091H28.3768V37.8327L46.0102 58.9091H58.8655V12.5149H43.6233Z" fill="white"/>
</g>
<defs>
<clipPath id="clip0">
<rect width="72" height="71.424" fill="white"/>
</clipPath>
</defs>
</svg>
