<svg width="130" height="30" viewBox="0 0 130 30" fill="none" xmlns="http://www.w3.org/2000/svg">
<path fill-rule="evenodd" clip-rule="evenodd" d="M14.9752 0C12.913 0 11.0472 0.392882 9.18161 1.22756C7.36494 1.96401 5.79381 2.99513 4.41892 4.41913C3.06605 5.77393 1.98298 7.37351 1.22736 9.13272C0.392682 11.0476 0 12.9134 0 14.9756C0 16.9888 0.392882 18.9528 1.22736 20.8677C1.98295 22.6269 3.06603 24.2265 4.41892 25.5813C5.79381 27.0053 7.36494 28.0362 9.18161 28.7726C11.0474 29.5091 12.9132 29.9509 14.9752 30C17.0377 29.9509 19.0017 29.5091 20.8674 28.7726C22.5857 28.0362 24.2063 27.0051 25.6301 25.5813C26.9829 24.2264 28.0659 22.6269 28.8215 20.8677C29.6073 18.9528 30.0489 16.9888 30.0489 14.9756C30.0489 12.9134 29.6071 11.0476 28.8215 9.13272C28.0851 7.36515 27.0048 5.79382 25.6301 4.41913C24.2061 2.99533 22.5857 1.96421 20.8674 1.22756C19.0017 0.392882 17.0377 0 14.9752 0ZM18.0195 1.96421C16.1046 1.96421 14.6316 2.60245 13.5023 3.83C12.8641 4.56646 12.373 5.64669 11.9312 6.92335L11.4403 7.1689L11.1456 7.6107H10.4583V7.90536H11.0474C11.0474 8.15071 11.1947 8.39626 11.4403 8.64182L11.5385 8.74004C11.3912 9.96759 11.2932 11.1949 11.3912 12.5698C11.3912 13.6501 11.4403 14.4847 11.5385 14.9758C11.6858 15.6141 11.9314 16.1052 12.275 16.3507C12.7659 16.7436 13.5023 16.989 14.5827 16.989L18.8054 17.0872L19.051 17.3327C19.0019 17.6765 18.7561 17.9712 18.4127 18.2167L18.2654 18.5603C16.2032 19.395 15.1228 20.0332 14.9756 20.4263L13.8463 22.3903L12.7661 17.6765L12.2752 17.7256L11.6369 17.1854L9.47647 17.431L6.97245 17.7256L5.7451 18.2167L5.49955 18.413V18.1676C5.40132 17.7256 5.3033 17.4312 5.05775 17.1854L4.17377 16.5963L3.43732 16.4492L2.70086 16.6945L2.30798 16.3507L4.02644 24.2068C3.12901 23.119 2.38558 21.9129 1.81708 20.6223C0.982404 18.8057 0.589522 16.9399 0.638633 14.9758C0.589522 13.0609 0.982404 11.1952 1.81708 9.37847C2.55353 7.66001 3.53554 6.13799 4.8122 4.81221C6.2362 3.48643 7.70911 2.50443 9.42756 1.76797C11.1945 0.982206 13.1094 0.540213 14.9752 0.540213C16.9394 0.540213 18.8052 0.982206 20.6217 1.76777C22.3404 2.50423 23.8131 3.48623 25.1388 4.81201C26.5137 6.1869 27.4959 7.65981 28.2324 9.37827C28.9688 11.195 29.3615 13.0607 29.3615 14.9756C29.3615 16.4979 29.1162 17.9708 28.7233 19.3946L27.1524 18.8054L26.6119 17.9708L25.7771 17.2341L25.0408 17.185V17.0868H26.17C26.7591 17.0868 27.1522 16.9395 27.594 16.4977C28.0849 16.1048 28.3304 15.3683 28.2322 14.4845C28.2322 13.5516 27.9866 12.5205 27.594 11.1948C27.1522 9.72184 26.5135 8.34695 25.7769 7.02118C24.7951 5.45005 23.715 4.32071 22.5855 3.48603C21.2108 2.45512 19.6399 1.96421 18.0195 1.96421ZM20.5235 7.1196C18.5595 6.43225 17.0868 4.95914 16.2028 2.60225C14.337 4.07536 13.1583 5.45024 12.6676 6.87404C12.913 6.92315 13.1585 7.02117 13.4041 7.1687L13.6005 7.36515L13.7479 7.26693C13.8952 7.02137 14.1405 6.92315 14.4843 6.92315C14.8281 6.92315 15.0736 7.02137 15.319 7.26693L15.3681 7.36515L15.6137 7.1687C15.859 6.92315 16.2028 6.87404 16.5955 6.87404C16.9394 6.87404 17.2828 6.92315 17.5286 7.1687L17.9212 7.6105H18.5108V7.90516H17.9212C17.9212 8.15051 17.7743 8.39606 17.5286 8.64161C17.2828 8.88717 16.9394 8.98539 16.5955 8.98539C16.2028 8.98539 15.859 8.88717 15.6137 8.64161C15.3188 8.39606 15.1226 8.15071 15.2206 7.90516V7.75783C15.1224 7.41406 14.877 7.26693 14.4841 7.26693C14.0914 7.26693 13.895 7.41406 13.8459 7.85605L13.6005 8.5925L13.4041 8.64161C13.1585 8.88717 12.8639 8.98539 12.4221 8.98539H12.373C12.4221 10.0656 12.6676 10.8512 13.0112 11.5876L13.4041 12.5205L13.8459 13.257L13.9932 13.7972L14.0914 14.4845C14.2388 14.8774 14.6317 15.221 15.2206 15.2701L16.7919 15.4665L17.1846 15.3683L17.6759 15.1228C18.0686 15.0246 19.3941 14.1408 21.4566 12.5694L19.7383 14.5335L18.3143 15.761L21.5057 19.9344L25.041 17.6759L24.6479 17.0866H21.6039L21.5057 11.0474C21.751 11.1948 21.9966 11.293 22.2421 11.1948C22.4386 11.0965 22.4875 10.8021 22.4875 10.2127C22.733 9.13252 22.5857 8.39606 22.193 8.1014H21.7508L21.9964 8.49428L21.5055 9.47629L21.3582 9.72164V10.311C21.4564 10.6056 21.2599 10.8512 20.8673 10.9492C20.8673 10.7036 20.769 10.5563 20.7199 10.4583L20.3763 10.1145C20.2781 9.96719 20.3763 9.81986 20.4746 9.57431L20.769 9.13252C20.9633 8.82634 21.0336 8.45758 20.9655 8.1014V7.90516H19.2959V7.6105H20.769L20.5235 7.1196ZM17.3321 7.36535C17.0868 7.1689 16.8412 7.11979 16.5957 7.1689C16.3012 7.11979 16.0556 7.1689 15.8099 7.36535V7.41446L15.5645 7.66001V7.90556C15.5645 8.15091 15.6137 8.34735 15.8099 8.49468C16.0554 8.5929 16.3012 8.64201 16.5957 8.64201C16.8412 8.64201 17.087 8.5929 17.3321 8.49468L17.5777 8.1018H16.8412C16.7921 8.15091 16.6939 8.15091 16.5957 8.15091C16.4487 8.15091 16.3503 8.15091 16.3503 8.1018H16.0554V7.75803H17.5777L17.3321 7.36535ZM19.2468 17.7254L18.6577 18.4619C18.5108 18.5601 18.5108 18.9528 18.7559 19.6894C18.9032 20.4259 19.149 21.1625 19.3941 21.7517L21.2599 20.1803L19.2959 17.5779V17.6761L19.2468 17.7254ZM22.3404 11.5387L22.0948 11.6861L21.9475 11.9316L22.0948 12.2754L22.3404 12.3245L22.5857 12.2754L22.733 11.9316L22.5857 11.6861L22.3404 11.5387ZM25.6793 17.6761L21.7508 20.2786L22.5857 22.3408L25.5319 20.3768C26.4155 19.6403 26.9068 19.1985 26.8577 18.9528L26.7595 18.7072L26.3664 18.1672L25.6795 17.5779L25.6793 17.6761ZM11.6856 7.36535C11.4401 7.51268 11.391 7.66001 11.391 7.90556C11.391 8.15091 11.4401 8.34735 11.6856 8.49468L12.4221 8.64201C12.6676 8.64201 12.913 8.5929 13.1585 8.49468L13.5023 8.1018H12.6185L12.4221 8.15091C12.2748 8.15091 12.1765 8.15091 12.1765 8.1018H11.8819V7.75803H13.5021L13.1583 7.36535C12.913 7.1689 12.6674 7.11979 12.4219 7.1689L11.6856 7.36535ZM3.43672 16.6943L2.94581 16.9397L5.15537 19.0512V18.7072C5.25359 18.069 5.15537 17.5779 4.90982 17.3325C4.76249 17.2343 4.51694 17.087 4.17337 16.9397L3.43672 16.6943ZM5.15537 19.0512L5.40073 18.8056C5.98985 18.413 6.48095 18.0692 6.97185 17.971L9.47587 17.6763L11.4399 17.4799L11.8817 17.8236L5.15537 19.0512Z" fill="#F9F9F9"/>
<path fill-rule="evenodd" clip-rule="evenodd" d="M15.6138 13.306C15.3189 13.5024 14.9753 13.5513 14.7298 13.5024L14.1404 13.4042C13.8951 13.306 13.8458 13.1586 13.8951 13.0113L14.0915 13.1586L14.4842 13.2568H14.9751L15.6136 13.0604L16.0554 13.0113L15.6138 13.306ZM15.8098 12.7659L15.712 12.8151L15.4664 12.9133H14.2389L14.0915 12.7659L13.7478 12.6677L14.0915 12.275L14.3371 12.4224L14.5824 12.275C15.3191 12.5204 15.712 12.6677 15.8098 12.7659ZM22.0949 10.4582L21.8494 10.3108C21.7512 10.2126 21.7512 10.0653 21.8494 9.7215C21.8492 9.86903 21.9476 10.1144 22.0949 10.4582ZM13.5022 11.4402C13.3551 11.3419 13.1584 11.0964 12.9131 10.851L14.8771 11.3419L13.5022 11.4402Z" fill="#F9F9F9"/>
<path fill-rule="evenodd" clip-rule="evenodd" d="M44 6V20.3145H46.3314V6H44ZM48.3755 24.7517H51.013L57.6836 12.0392H55.0461L52.752 16.7405L50.1913 12.0392H47.4775L51.4146 19.0725L48.3755 24.7517ZM58.8302 20.3145H61.1616V16.091C61.1616 15.6127 61.1808 15.0202 61.5248 14.4848C61.8687 13.9692 62.3465 13.7596 62.9582 13.7596C63.1875 13.7596 63.6845 13.7979 64.0477 14.1803C64.4684 14.6202 64.4871 15.3455 64.4871 15.8046V20.3145H66.8185V15.1162C66.8185 14.3136 66.7423 13.4919 66.1685 12.7847C65.5189 11.9811 64.4487 11.7715 63.7224 11.7715C62.3844 11.7715 61.601 12.4979 61.1611 13.109V12.0392H58.8297L58.8302 20.3145ZM75.3801 13.109C74.5962 11.8862 73.3543 11.7715 72.7239 11.7715C70.2773 11.7715 68.6151 13.7212 68.6151 16.1673C68.6151 18.5952 70.2965 20.5853 72.8386 20.5853C73.4316 20.5853 74.5392 20.4515 75.3801 19.2447V20.3145H77.7121V6H75.3801V13.109ZM73.3164 18.5179C71.9784 18.5179 71.0233 17.4855 71.0233 16.1673C71.0233 14.849 71.9784 13.8358 73.3164 13.8358C74.6538 13.8358 75.61 14.849 75.61 16.1673C75.61 17.4855 74.6538 18.5179 73.3164 18.5179ZM86.2737 13.109C85.4898 11.8862 84.2478 11.7715 83.617 11.7715C81.1704 11.7715 79.5081 13.7212 79.5081 16.1673C79.5081 18.5952 81.1896 20.5853 83.7316 20.5853C84.3246 20.5853 85.4328 20.4515 86.2737 19.2447V20.3145H88.6057V12.0392H86.2737V13.109ZM84.2094 18.5179C82.8715 18.5179 81.9164 17.4855 81.9164 16.1673C81.9164 14.849 82.872 13.8358 84.2094 13.8358C85.5469 13.8358 86.503 14.849 86.503 16.1673C86.503 17.4855 85.5474 18.5179 84.2094 18.5179ZM90.631 19.0725C90.631 19.9135 91.2816 20.5671 92.1215 20.5671C92.9625 20.5671 93.612 19.9135 93.612 19.0725C93.612 18.2315 92.9625 17.582 92.1215 17.582C91.2816 17.582 90.631 18.2315 90.631 19.0725ZM103.829 11.5324C103.401 11.2325 102.48 10.6754 101.067 10.6754C98.3247 10.6754 96.3113 12.6675 96.3113 15.388C96.3113 18.065 98.3034 20.039 101.067 20.039C102.084 20.0431 103.075 19.7191 103.893 19.115V17.2728C103.08 18.2575 101.944 18.6653 101.023 18.6653C99.438 18.6653 97.8962 17.5301 97.8962 15.3673C97.8962 13.2045 99.396 12.047 101.045 12.047C101.837 12.047 103.015 12.3469 103.829 13.3757V11.5324ZM110.405 20.039C113.103 20.039 115.116 18.065 115.116 15.3668C115.116 12.6675 113.125 10.6754 110.405 10.6754C107.684 10.6754 105.693 12.6675 105.693 15.3668C105.693 18.065 107.707 20.039 110.405 20.039ZM110.405 12.0465C112.032 12.0465 113.532 13.1821 113.532 15.3668C113.532 17.5301 112.01 18.6647 110.405 18.6647C108.82 18.6647 107.278 17.5514 107.278 15.3668C107.278 13.2034 108.777 12.0465 110.405 12.0465ZM117.473 19.7786H119.016V14.9383C119.016 13.8675 119.208 12.0465 120.954 12.0465C122.571 12.0465 122.571 13.8887 122.571 14.5097V19.7786H124.113V14.8309C124.113 13.7601 124.306 12.0465 126.083 12.0465C127.54 12.0465 127.669 13.3751 127.669 14.3811V19.7786H129.21V14.1461C129.21 13.4177 129.189 12.6462 128.718 11.8753C128.462 11.4691 127.82 10.6759 126.32 10.6759C125.72 10.6759 124.499 10.762 123.643 12.1119C123.472 11.812 122.807 10.6759 121.208 10.6759C120.273 10.6759 119.505 11.1044 119.016 11.8328V10.8906H117.474L117.473 19.7786Z" fill="#F9F9F9"/>
</svg>
