<svg width="55" height="55" viewBox="0 0 55 55" fill="none" xmlns="http://www.w3.org/2000/svg">
<path d="M40.7402 55C39.6073 54.7432 38.5868 54.3001 37.8097 53.3803C37.0192 52.4454 36.6969 51.3612 36.6969 50.1678C36.6919 44.238 36.6818 38.3081 36.7003 32.38C36.7087 29.4914 38.6825 27.5612 41.5711 27.5562C44.4294 27.5512 47.2861 27.5797 50.1444 27.5478C52.6318 27.521 54.5922 29.186 54.9279 31.4317C54.938 31.4988 54.9749 31.5626 55.0001 31.6281C55.0001 38.0614 55.0001 44.4931 55.0001 50.9265C54.6879 51.6717 54.4714 52.4773 54.045 53.1487C53.3401 54.2598 52.1837 54.7482 50.9265 55C47.5311 55 44.1357 55 40.7402 55Z" fill="#FF6666"/>
<path d="M45.8257 9.24975C45.4548 9.24975 45.1359 9.24975 44.8153 9.24975C39.1691 9.24975 33.5229 9.22793 27.8784 9.25646C23.9023 9.2766 20.9801 11.0658 19.2211 14.6559C18.5716 15.9802 18.4071 17.4136 18.4088 18.8771C18.4172 26.1128 18.4122 33.3484 18.4122 40.5858C18.4122 40.7956 18.4122 41.0054 18.4122 41.279C18.1503 41.279 17.9422 41.279 17.7341 41.279C13.481 41.2806 9.22954 41.2806 4.97644 41.2806C2.09292 41.2806 0.109032 39.3236 0.107353 36.4518C0.102318 25.9466 0.102318 15.4397 0.107353 4.93454C0.11071 2.08123 2.07781 0.110773 4.92608 0.109095C16.9687 0.104059 29.0097 0.104059 41.0523 0.109095C43.3719 0.110773 45.0738 1.38973 45.6898 3.57335C45.7703 3.86203 45.8173 4.16918 45.8207 4.46962C45.8324 6.03558 45.8257 7.6049 45.8257 9.24975Z" fill="#FF6666"/>
<path d="M32.1366 50.3625C30.3122 50.3625 28.5683 50.4968 26.8547 50.329C24.7667 50.1242 22.9574 48.2897 22.9674 45.5102C22.9859 40.1678 22.9725 34.8254 22.9725 29.483C22.9725 25.9097 22.9725 22.3364 22.9725 18.763C22.9725 17.6485 23.2041 16.6046 23.8939 15.6965C24.8355 14.4595 26.1011 13.8419 27.6351 13.8369C33.6741 13.8217 39.713 13.815 45.7519 13.8369C48.377 13.8469 50.2937 15.7016 50.3978 18.3165C50.4582 19.8456 50.4095 21.378 50.4095 22.9708C50.1511 22.9708 49.9413 22.9691 49.7331 22.9708C46.6784 22.9876 43.6204 22.9221 40.5707 23.0446C36.4401 23.2091 32.8147 26.5945 32.2776 30.6949C32.1282 31.8395 32.1467 33.0094 32.1433 34.1692C32.1299 39.3505 32.1383 44.5317 32.1383 49.713C32.1366 49.9245 32.1366 50.1343 32.1366 50.3625Z" fill="#336699"/>
</svg>
