<svg width="55" height="55" viewBox="0 0 55 55" fill="none" xmlns="http://www.w3.org/2000/svg">
<path d="M40.7402 55C27.1601 55 13.5801 55 0 55C0 36.6667 0 18.3333 0 0C18.3333 0 36.6667 0 55 0C55 10.5421 55 21.0859 55 31.6281C54.9748 31.5626 54.9379 31.4988 54.9278 31.4317C54.5921 29.186 52.6301 27.5193 50.1443 27.5478C47.2877 27.5797 44.4293 27.5512 41.571 27.5562C38.6824 27.5613 36.7086 29.4914 36.7002 32.38C36.6818 38.3098 36.6918 44.2397 36.6969 50.1678C36.6986 51.3629 37.0208 52.4454 37.8097 53.3803C38.5868 54.3001 39.6073 54.7432 40.7402 55ZM45.8258 9.24975C45.8258 7.6049 45.8325 6.03726 45.8191 4.46962C45.8174 4.17086 45.7704 3.86203 45.6881 3.57335C45.0722 1.38973 43.3703 0.110775 41.0507 0.109097C29.0081 0.104062 16.9671 0.104062 4.92447 0.109097C2.07788 0.110775 0.110775 2.08124 0.109097 4.93286C0.104062 15.4381 0.104062 25.9449 0.109097 36.4501C0.110775 39.3219 2.09466 41.279 4.97818 41.279C9.23129 41.279 13.4827 41.2773 17.7358 41.2773C17.9439 41.2773 18.1521 41.2773 18.4139 41.2773C18.4139 41.0054 18.4139 40.7939 18.4139 40.5841C18.4139 33.3484 18.4189 26.1128 18.4105 18.8755C18.4089 17.4119 18.5733 15.9785 19.2229 14.6542C20.9802 11.0641 23.9023 9.27492 27.8785 9.25646C33.5247 9.22793 39.1709 9.24975 44.8154 9.24975C45.136 9.24975 45.4565 9.24975 45.8258 9.24975ZM32.1366 50.3625C32.1366 50.1359 32.1366 49.9245 32.1366 49.7147C32.1366 44.5334 32.1299 39.3521 32.1417 34.1709C32.145 33.0128 32.1266 31.8412 32.2759 30.6965C32.8113 26.5945 36.4384 23.2108 40.569 23.0463C43.6203 22.9238 46.6767 22.9893 49.7314 22.9725C49.9413 22.9708 50.1494 22.9725 50.4079 22.9725C50.4079 21.3813 50.4565 19.8473 50.3961 18.3182C50.2937 15.7016 48.3753 13.8469 45.7502 13.8385C39.7113 13.8167 33.6724 13.8234 27.6334 13.8385C26.0977 13.8419 24.8338 14.4595 23.8922 15.6982C23.2007 16.6062 22.9708 17.6519 22.9708 18.7647C22.9691 22.338 22.9708 25.9114 22.9708 29.4847C22.9708 34.8271 22.9842 40.1695 22.9658 45.5119C22.9557 48.2914 24.7667 50.1259 26.853 50.3306C28.5683 50.4968 30.3122 50.3625 32.1366 50.3625Z" fill="white"/>
<path d="M40.7402 55C39.6073 54.7432 38.5868 54.3001 37.8097 53.3803C37.0192 52.4455 36.6969 51.3612 36.6969 50.1679C36.6919 44.238 36.6818 38.3082 36.7003 32.38C36.7087 29.4914 38.6825 27.5613 41.5711 27.5562C44.4294 27.5512 47.2861 27.5797 50.1444 27.5478C52.6318 27.521 54.5922 29.186 54.9279 31.4317C54.938 31.4988 54.9749 31.5626 55.0001 31.6281C55.0001 38.0614 55.0001 44.4931 55.0001 50.9265C54.6879 51.6717 54.4714 52.4774 54.045 53.1487C53.3401 54.2598 52.1837 54.7482 50.9265 55C47.5311 55 44.1357 55 40.7402 55Z" fill="#FF6666"/>
<path d="M50.9265 55C52.1836 54.7465 53.34 54.2598 54.0449 53.1487C54.4713 52.4773 54.6895 51.6717 55 50.9265C55 52.2843 55 53.6421 55 55C53.6421 55 52.2843 55 50.9265 55Z" fill="white"/>
<path d="M45.8257 9.24975C45.4548 9.24975 45.1359 9.24975 44.8153 9.24975C39.1691 9.24975 33.5229 9.22793 27.8784 9.25646C23.9023 9.2766 20.9801 11.0658 19.2211 14.6559C18.5716 15.9802 18.4071 17.4136 18.4088 18.8771C18.4172 26.1128 18.4122 33.3484 18.4122 40.5858C18.4122 40.7956 18.4122 41.0054 18.4122 41.279C18.1503 41.279 17.9422 41.279 17.7341 41.279C13.481 41.2806 9.22954 41.2806 4.97644 41.2806C2.09292 41.2806 0.109032 39.3236 0.107353 36.4518C0.102318 25.9466 0.102318 15.4397 0.107353 4.93454C0.11071 2.08123 2.07781 0.110771 4.92608 0.109093C16.9687 0.104057 29.0097 0.104057 41.0523 0.109093C43.3719 0.110771 45.0738 1.38972 45.6898 3.57334C45.7703 3.86203 45.8173 4.16918 45.8207 4.46962C45.8324 6.03558 45.8257 7.6049 45.8257 9.24975Z" fill="#FF6666"/>
<path d="M32.1366 50.3626C30.3122 50.3626 28.5683 50.4968 26.8547 50.329C24.7667 50.1242 22.9574 48.2897 22.9674 45.5103C22.9859 40.1679 22.9725 34.8255 22.9725 29.4831C22.9725 25.9097 22.9725 22.3364 22.9725 18.763C22.9725 17.6485 23.2041 16.6046 23.8939 15.6966C24.8355 14.4596 26.1011 13.8419 27.6351 13.8369C33.6741 13.8218 39.713 13.815 45.7519 13.8369C48.377 13.8469 50.2937 15.7016 50.3978 18.3166C50.4582 19.8456 50.4095 21.378 50.4095 22.9708C50.1511 22.9708 49.9413 22.9691 49.7331 22.9708C46.6784 22.9876 43.6204 22.9221 40.5707 23.0447C36.4401 23.2091 32.8147 26.5945 32.2776 30.6949C32.1282 31.8396 32.1467 33.0094 32.1433 34.1692C32.1299 39.3505 32.1383 44.5317 32.1383 49.713C32.1366 49.9245 32.1366 50.1343 32.1366 50.3626Z" fill="#336699"/>
</svg>
