<svg width="165" height="30" viewBox="0 0 165 30" fill="none" xmlns="http://www.w3.org/2000/svg">
<path d="M60.3999 2C56.9999 3.1 53.4499 6.2 53.8999 9.7C53.8999 13.7 57.8999 16.8 61.8499 18.1C58.7499 14.55 56.5499 10.15 58.4999 5.3C59.3999 3.25 60.3999 2 60.3999 2Z" fill="#F9F9F9"/>
<path d="M53.05 10.6499C51.7 14.1499 53 18.5499 55.65 20.3499C59.2 22.9999 64.05 21.6999 67.6 18.5999C62.75 19.4999 57.45 18.5999 54.75 14.2499C53.55 12.1999 53.05 10.6499 53.05 10.6499Z" fill="#F9F9F9"/>
<path d="M56.25 21.6999C58.7 24.6999 63.15 25.9499 66.7 24.5999C69.1 23.6499 70.9 21.0499 71.3 18.0999C71.55 16.5999 71.25 15.3499 71.05 13.8499C69.3 18.6999 65.35 22.0999 60.25 22.3499C57.9 22.1999 56.25 21.6999 56.25 21.6999Z" fill="#F9F9F9"/>
<path d="M68.1999 24.7999C72.0499 23.8499 75.9999 20.3 75.9999 16.35C75.9999 13.7 73.2499 8.94995 68.0499 7.94995C71.5999 11.5 73.7999 17.25 70.7499 21.7C69.3999 23.65 68.1999 24.7999 68.1999 24.7999Z" fill="#F9F9F9"/>
<path d="M76.7499 15.2498C77.2999 11.4498 76.3999 6.59981 72.8999 4.79981C70.6999 3.44981 64.2499 4.74981 62.2999 8.34981C66.7499 6.59981 72.4499 6.99981 75.1499 11.7498C76.2999 13.6998 76.7499 15.2498 76.7499 15.2498Z" fill="#F9F9F9"/>
<path d="M72.15 3.54988C69.35 1.29988 64.95 -0.000121474 61.85 2.19988C58.3 4.39988 57.45 9.24988 59.65 13.2499C60.1 8.39988 63.65 4.39988 68.35 3.54988C70.55 3.29988 72.15 3.54988 72.15 3.54988Z" fill="#F9F9F9"/>
<path d="M12.2 18.55C12.2 17.65 11.85 16.9 11.2 16.25C10.55 15.65 9.40001 15.1 7.75001 14.7C5.70001 14.2 4.10001 13.45 2.95001 12.45C1.80001 11.45 1.25001 10.25 1.25001 8.75C1.25001 7.2 1.85001 5.85 3.10001 4.8C4.35001 3.75 5.95001 3.25 7.90001 3.25C10 3.25 11.7 3.85 12.95 5.05C14.2 6.25 14.8 7.65 14.8 9.25L14.75 9.35H12.15C12.15 8.2 11.75 7.25 10.95 6.5C10.15 5.75 9.15001 5.4 7.90001 5.4C6.65001 5.4 5.65001 5.7 5.00001 6.3C4.30001 6.9 4.00001 7.7 4.00001 8.7C4.00001 9.55 4.35001 10.3 5.10001 10.9C5.85001 11.5 7.05001 12 8.70001 12.45C10.7 12.95 12.25 13.75 13.3 14.75C14.35 15.75 14.9 17.05 14.9 18.55C14.9 20.15 14.25 21.45 13 22.45C11.75 23.45 10.05 23.9 8.00001 23.9C6.05001 23.9 4.35001 23.35 2.85001 22.25C1.35001 21.15 0.650008 19.7 0.700008 17.9L0.750008 17.8H3.35001C3.35001 19.05 3.85001 20.05 4.80001 20.7C5.75001 21.4 6.85001 21.75 8.05001 21.75C9.35001 21.75 10.35 21.45 11.1 20.9C11.8 20.3 12.2 19.55 12.2 18.55Z" fill="#F9F9F9"/>
<path d="M34.0499 15.35C34.0499 17.8 33.3 19.85 31.75 21.45C30.25 23.05 28.25 23.9 25.85 23.9C23.5 23.9 21.6 23.1 20.15 21.45C18.6999 19.85 17.95 17.8 17.95 15.35V11.8C17.95 9.35 18.6999 7.3 20.15 5.7C21.6 4.05 23.5 3.25 25.85 3.25C28.3 3.25 30.25 4.05 31.75 5.7C33.25 7.3 34.0499 9.35 34.0499 11.8V15.35V15.35ZM31.35 11.75C31.35 9.9 30.85 8.4 29.85 7.25C28.85 6.05 27.55 5.5 25.85 5.5C24.25 5.5 22.9999 6.1 22.0499 7.25C21.0999 8.45 20.65 9.95 20.65 11.75V15.35C20.65 17.2 21.0999 18.7 22.0499 19.9C22.9999 21.1 24.25 21.65 25.85 21.65C27.55 21.65 28.85 21.05 29.85 19.9C30.85 18.75 31.35 17.2 31.35 15.35V11.75Z" fill="#F9F9F9"/>
<path d="M40.7 21.5H50.5V23.6H38V3.55005H40.7V21.5Z" fill="#F9F9F9"/>
<path d="M84.3001 21.5H94.1001V23.6H81.6001V3.55005H84.3001V21.5Z" fill="#F9F9F9"/>
<path d="M108.05 14.3H99.8001V21.5H109.45V23.6H97.1001V3.55005H109.3V5.70005H99.8001V12.2H108.05V14.3V14.3Z" fill="#F9F9F9"/>
<path d="M123 18.45H115.45L113.65 23.6H110.9L118.15 3.55005H120.5L127.6 23.6H124.85L123 18.45ZM116.25 16.15H122.25L119.35 7.55005H119.25L116.25 16.15Z" fill="#F9F9F9"/>
<path d="M133.2 14.9V23.6H130.5V3.55005H137.35C139.55 3.55005 141.2 4.05005 142.4 5.00005C143.55 5.95005 144.15 7.40005 144.15 9.25005C144.15 10.3 143.9 11.2 143.35 11.95C142.8 12.7 142.05 13.3 141 13.75C142.1 14.1 142.9 14.7 143.4 15.5C143.9 16.3 144.1 17.3 144.1 18.5V20.4C144.1 21 144.15 21.6 144.3 22.1C144.45 22.6 144.7 23 145 23.3V23.65H142.2C141.85 23.35 141.6 22.9 141.5 22.25C141.4 21.65 141.35 21 141.35 20.4V18.5C141.35 17.4 141.05 16.55 140.4 15.9C139.75 15.25 138.9 14.9 137.85 14.9H133.2ZM133.2 12.75H137.05C138.6 12.75 139.7 12.45 140.35 11.85C141 11.25 141.35 10.4 141.35 9.20005C141.35 8.05005 141 7.20005 140.35 6.55005C139.7 5.95005 138.65 5.60005 137.3 5.60005H133.15V12.75H133.2Z" fill="#F9F9F9"/>
<path d="M163.65 23.6H160.95L151.3 8.25005L151.2 8.30005V23.6H148.5V3.55005H151.2L160.85 18.85L160.95 18.8V3.55005H163.65V23.6Z" fill="#F9F9F9"/>
</svg>
