<svg width="170" height="30" viewBox="0 0 170 30" fill="none" xmlns="http://www.w3.org/2000/svg">
<path d="M10.2348 0.119629L0.266479 5.81587L0.267368 18.9363C0.248712 24.962 5.13757 29.8616 11.1863 29.8803C13.1862 29.8863 15.063 29.3583 16.6791 28.4299L24.7539 23.8075C27.939 22.1615 30.1202 18.8504 30.1321 15.0272L30.1328 1.32455L28.1565 0.173271L20.0598 4.73076L20.0605 4.73166L20.058 18.9966C20.0563 19.6037 20.0295 20.0475 19.8707 20.7974C19.601 21.941 19.2213 22.7454 19.1548 22.8816C18.5372 22.839 17.2332 22.4827 16.1923 21.8644C15.6727 21.5635 15.0544 21.1173 14.4971 20.5917C14.1367 20.2311 13.8105 19.8339 13.5271 19.413C13.2411 18.9878 12.9948 18.5339 12.7975 18.0637C12.5957 17.5848 12.4415 17.0842 12.3387 16.5757C12.2332 16.0529 12.2095 15.5137 12.2104 14.9735L12.2172 1.2719L10.2348 0.119629ZM14.8226 27.1942C14.2819 27.4204 13.7166 27.5932 13.1413 27.7086C12.5509 27.827 12.0059 27.8863 11.3971 27.8847C10.7881 27.8828 10.1798 27.8199 9.58945 27.6978C9.01496 27.5789 8.45085 27.4024 7.91171 27.1729C7.38208 26.9474 6.87092 26.6694 6.39255 26.3456C5.15951 25.4826 4.52346 24.7351 3.97685 23.9249C3.65474 23.447 3.37899 22.9358 3.1554 22.407C2.92851 21.8691 2.75466 21.3053 2.63926 20.7326C2.52031 20.1446 2.49828 19.5381 2.49988 18.9312L2.49917 6.95533L9.9742 2.41055L9.96496 14.9677C9.95048 19.7397 13.4772 23.7226 17.9805 24.685C17.8042 24.8951 17.6769 25.0966 17.4821 25.2896C17.0745 25.6928 16.6352 26.0703 16.1596 26.3883C15.6795 26.7087 15.3531 26.9724 14.8226 27.1942ZM27.77 16.6463C27.6637 17.1548 27.507 17.6537 27.302 18.1319C26.7587 19.3323 25.8747 20.3526 25.1358 21.0103C23.6277 22.3919 21.7484 22.8185 21.5316 22.8196C21.9837 21.6293 22.2882 20.3533 22.2931 19.0057L22.2924 5.88232L27.8992 2.46411L27.9016 15.0213C27.9 15.5615 27.8789 16.1232 27.77 16.6463Z" fill="#F9F9F9"/>
<path d="M55.521 16.5315C55.521 19.0086 53.4468 21.057 50.6421 21.057C47.8376 21.057 45.8158 19.0086 45.8158 16.5315V7.66694H44.3244V16.5526C44.3244 19.7456 46.7941 22.5474 50.6421 22.5474C54.4901 22.5474 57.0189 19.7456 57.0189 16.5526V7.66694H55.5217L55.521 16.5315ZM71.4232 7.66694H66.7285L66.7301 22.1759L71.5843 22.1749C75.9225 22.1749 78.6807 19.4938 78.6807 14.9089C78.68 10.3655 75.7603 7.66694 71.4232 7.66694ZM71.2789 20.7006L68.2221 20.6876V9.15494L71.2789 9.15064C74.8141 9.15064 77.1994 11.3766 77.1994 14.9089C77.1994 18.6189 74.8351 20.7006 71.2789 20.7006ZM112.997 21.0517C109.565 21.0517 107.09 18.2245 107.09 14.7846C107.09 11.3877 109.564 8.76736 112.956 8.76736C115.669 8.76736 117.354 10.3642 117.354 10.3642L118.115 9.32115C118.115 9.32115 116.369 7.4521 112.914 7.4521C108.782 7.4521 105.609 10.6304 105.609 14.8053C105.609 19.0016 108.7 22.5295 112.977 22.5295C116.533 22.5295 118.506 20.1068 118.506 20.1068L117.684 19.1037C117.684 19.1048 115.916 21.0517 112.997 21.0517ZM127.97 22.1759H129.464V7.66694H127.97V22.1759ZM138.052 9.15494H143.28L143.279 22.1749H144.774V9.15494H150.002V7.66694H138.052V9.15494ZM167.361 7.66694L162.727 14.3509H162.686L158.007 7.66694H156.383L161.951 15.9118V22.1759H163.445V15.9118L168.964 7.66694H167.361ZM91.3187 7.66694L85.4283 22.164H86.9862L88.5448 18.284L95.1009 16.9459L97.208 22.1647H98.7656L92.8755 7.66766L91.3187 7.66694ZM89.2007 16.6836L92.0769 9.65563H92.1173L94.5467 15.592L89.2007 16.6836Z" fill="#F9F9F9"/>
</svg>
