<svg width="101" height="30" viewBox="0 0 101 30" fill="none" xmlns="http://www.w3.org/2000/svg">
<path d="M64.7919 6.91187C60.3776 6.91187 56.8054 10.513 56.8054 15.0145C56.8054 19.5159 60.4066 23.1171 64.7919 23.1171C69.1772 23.1171 72.7783 19.5159 72.7783 15.0145C72.7783 10.513 69.2062 6.91187 64.7919 6.91187ZM64.7919 19.8063C62.1781 19.8063 60.0871 17.7153 60.0871 15.1016C60.0871 12.4879 62.1781 10.3969 64.7919 10.3969C67.4056 10.3969 69.4966 12.4879 69.4966 15.1016C69.4966 17.6282 67.2895 19.8063 64.7919 19.8063ZM82.5944 10.8034C80.3001 10.8034 78.4995 12.6911 78.4995 15.0145V22.7105H74.9855V7.40557H78.4995V9.81603C78.4995 9.81603 80.0097 7.40557 83.001 7.40557H83.9884V10.8034H82.5944ZM47.6864 7.40557L50.3001 17.9186L53.0881 7.40557H56.6022L52.1878 22.7105H48.79L46.0891 12.0232L43.3882 22.7105H39.9903L35.4889 7.40557H38.8868L41.878 17.9186L44.3756 7.40557H47.6864Z" fill="#F9F9F9"/>
<path d="M94.211 14.4046C96.6215 13.0106 98.3059 10.3969 98.3059 7.40561H94.7919C94.7919 10.0194 92.7009 12.1104 90.2033 12.1104H89.7096V0H86.1956V22.7106H89.7096V15.5082H90.1162C90.5228 15.5082 90.9293 15.7115 91.0165 16.0019L95.9245 22.7106H100.019L94.211 14.4046Z" fill="#F9F9F9"/>
<path d="M27.3863 6.912C23.5818 6.912 20.6776 9.40958 19.5741 13.4173C17.7735 10.6293 16.3795 7.40571 15.5663 4.70483H11.5586V15.305C11.5586 17.396 9.84511 19.1095 7.75411 19.1095C5.66312 19.1095 3.94966 17.396 3.94966 15.305V4.70483H0V15.305C0 19.7194 3.51404 23.2044 7.8122 23.2044C12.1104 23.2044 15.6244 19.6903 15.6244 15.305V13.5044C16.4376 15.1017 17.425 16.8152 18.5286 18.2963L16.031 30.0001H20.1258L21.9264 21.4909C23.5237 22.4783 25.3243 23.0882 27.4153 23.0882C31.8296 23.0882 35.4017 19.487 35.4017 14.8984C35.4017 10.5132 31.8006 6.912 27.3863 6.912ZM27.3863 19.0224C25.789 19.0224 24.1917 18.3254 22.8848 17.2218L23.2914 15.6245V15.5374C23.5818 13.8239 24.4821 10.9488 27.5024 10.9488C29.7096 10.9488 31.5102 12.7494 31.5102 14.9565C31.394 17.2218 29.5063 19.0224 27.3863 19.0224Z" fill="white"/>
</svg>
