<svg width="40" height="40" viewBox="0 0 40 40" fill="none" xmlns="http://www.w3.org/2000/svg">
<path d="M36 0.5H4C2.067 0.5 0.5 2.067 0.5 4V36C0.5 37.933 2.067 39.5 4 39.5H36C37.933 39.5 39.5 37.933 39.5 36V4C39.5 2.067 37.933 0.5 36 0.5Z" fill="#D1DDFF"/>
<path d="M24.5872 11.2568H32.0732V13.0891H24.5872V11.2568ZM17.0863 18.5063C18.7411 17.7075 19.6079 16.4923 19.6079 14.6147C19.6079 10.901 16.8687 10 13.7054 10H5V28.6404H13.9493C17.3039 28.6404 20.4522 27.0126 20.4522 23.2269C20.4522 20.8874 19.3565 19.1574 17.0863 18.5063ZM9.06004 13.1799H12.8687C14.3358 13.1799 15.6529 13.5925 15.6529 15.3112C15.6529 16.8936 14.6285 17.5296 13.1764 17.5296H9.06004V13.1799ZM13.394 25.4756H9.05629V20.3423H13.4803C15.2664 20.3423 16.3959 21.0956 16.3959 23.0036C16.3959 24.8813 15.0488 25.4756 13.394 25.4756ZM35 22.0875C35 18.0936 32.6848 14.7661 28.4972 14.7661C24.4259 14.7661 21.6567 17.8589 21.6567 21.9133C21.6567 26.1154 24.2796 29 28.4972 29C31.6904 29 33.758 27.5501 34.7523 24.4573H31.5141C31.1614 25.6119 29.728 26.2176 28.6135 26.2176C26.4597 26.2176 25.334 24.9456 25.334 22.784H34.9737C34.985 22.5607 35 22.326 35 22.0875ZM25.334 20.4445C25.4503 18.6691 26.6248 17.5599 28.3809 17.5599C30.227 17.5599 31.1501 18.6539 31.3114 20.4445H25.334Z" fill="#3669FF"/>
</svg>
