<svg width="39" height="39" viewBox="0 0 39 39" fill="none" xmlns="http://www.w3.org/2000/svg">
<path d="M35.5 0H3.5C1.567 0 0 1.567 0 3.5V35.5C0 37.433 1.567 39 3.5 39H35.5C37.433 39 39 37.433 39 35.5V3.5C39 1.567 37.433 0 35.5 0Z" fill="#F2F2F2"/>
<path fill-rule="evenodd" clip-rule="evenodd" d="M8.25986 17.3359C8.34202 17.2536 8.43963 17.1882 8.54709 17.1436C8.65455 17.099 8.76975 17.0761 8.88609 17.0761C9.00244 17.0761 9.11764 17.099 9.2251 17.1436C9.33256 17.1882 9.43016 17.2536 9.51233 17.3359L19.5002 27.3256L29.4881 17.3359C29.6542 17.1699 29.8795 17.0765 30.1144 17.0765C30.3493 17.0765 30.5745 17.1699 30.7406 17.3359C30.9067 17.502 31 17.7273 31 17.9622C31 18.1971 30.9067 18.4223 30.7406 18.5884L20.1265 29.2025C20.0443 29.2849 19.9467 29.3503 19.8392 29.3949C19.7318 29.4395 19.6166 29.4624 19.5002 29.4624C19.3839 29.4624 19.2687 29.4395 19.1612 29.3949C19.0538 29.3503 18.9562 29.2849 18.874 29.2025L8.25986 18.5884C8.17749 18.5062 8.11213 18.4086 8.06754 18.3012C8.02295 18.1937 8 18.0785 8 17.9622C8 17.8458 8.02295 17.7306 8.06754 17.6232C8.11213 17.5157 8.17749 17.4181 8.25986 17.3359V17.3359Z" fill="#3581B8"/>
<path fill-rule="evenodd" clip-rule="evenodd" d="M8.25986 10.2599C8.34202 10.1775 8.43963 10.1121 8.54709 10.0675C8.65455 10.023 8.76975 10 8.88609 10C9.00244 10 9.11764 10.023 9.2251 10.0675C9.33256 10.1121 9.43016 10.1775 9.51233 10.2599L19.5002 20.2495L29.4881 10.2599C29.5704 10.1776 29.668 10.1124 29.7755 10.0679C29.8829 10.0234 29.9981 10.0005 30.1144 10.0005C30.2307 10.0005 30.3458 10.0234 30.4533 10.0679C30.5607 10.1124 30.6584 10.1776 30.7406 10.2599C30.8228 10.3421 30.8881 10.4397 30.9326 10.5472C30.9771 10.6546 31 10.7698 31 10.8861C31 11.0024 30.9771 11.1176 30.9326 11.225C30.8881 11.3325 30.8228 11.4301 30.7406 11.5123L20.1265 22.1265C20.0443 22.2088 19.9467 22.2742 19.8392 22.3188C19.7318 22.3634 19.6166 22.3863 19.5002 22.3863C19.3839 22.3863 19.2687 22.3634 19.1612 22.3188C19.0538 22.2742 18.9562 22.2088 18.874 22.1265L8.25986 11.5123C8.17749 11.4302 8.11213 11.3326 8.06754 11.2251C8.02295 11.1176 8 11.0024 8 10.8861C8 10.7697 8.02295 10.6545 8.06754 10.5471C8.11213 10.4396 8.17749 10.342 8.25986 10.2599V10.2599Z" fill="#3581B8"/>
</svg>
