<svg width="40" height="40" viewBox="0 0 40 40" fill="none" xmlns="http://www.w3.org/2000/svg">
<path d="M4 0.5H36C37.933 0.5 39.5 2.067 39.5 4V36C39.5 37.933 37.933 39.5 36 39.5H4C2.067 39.5 0.5 37.933 0.5 36V4C0.5 2.067 2.067 0.5 4 0.5Z" fill="#F9D7E4" stroke="#E4528B"/>
<path d="M20.5 8C14.1486 8 9 13.1486 9 19.5C9 25.8514 14.1486 31 20.5 31C26.8514 31 32 25.8514 32 19.5C32 13.1486 26.8514 8 20.5 8ZM20.5 9.66635C23.0053 9.66635 25.292 10.6036 27.0285 12.1458C25.7526 13.8288 23.8143 14.9494 21.8719 15.7079C20.7724 13.7053 19.5401 11.7786 18.1833 9.94062C18.9421 9.75772 19.7194 9.66565 20.5 9.66635ZM16.3163 10.5979C17.5985 12.516 18.8405 14.2945 19.975 16.3076C17.1058 17.0511 13.8633 17.4973 10.8682 17.5048C11.4995 14.4412 13.5574 11.8968 16.3163 10.5979ZM28.1193 13.2831C29.5403 15.0196 30.322 17.1913 30.3337 19.435C28.059 18.9865 25.7969 18.8692 23.4934 19.1015C23.2347 18.4558 22.9207 17.8423 22.62 17.181C24.6055 16.38 26.7284 15.0098 28.1193 13.2831ZM20.7737 17.8291C21.0198 18.3523 21.305 18.9078 21.5729 19.4753C18.3702 20.8875 14.9633 22.7746 13.1952 26.0832C11.4978 24.2048 10.5932 21.7424 10.6709 19.2119C14.1008 19.1958 17.4675 18.7669 20.7737 17.8291ZM25.9706 20.5103C27.4016 20.5106 28.8267 20.6942 30.2112 21.0565C29.9977 22.3884 29.5125 23.662 28.7857 24.7983C28.059 25.9346 27.1062 26.9092 25.9867 27.6616C25.4588 25.2609 24.9557 22.9638 24.0661 20.6477C24.6966 20.5558 25.3329 20.5097 25.97 20.5097L25.9706 20.5103ZM30.2624 20.6885C30.2554 20.7449 30.2491 20.8001 30.2411 20.8553C30.2491 20.7995 30.256 20.7443 30.2624 20.6885ZM22.2469 21.0968C23.153 23.4388 23.8643 26.032 24.3416 28.5557C23.1267 29.0711 21.8203 29.336 20.5006 29.3342C18.3143 29.3373 16.19 28.6086 14.4659 27.2642C16.2467 24.3754 19.005 22.1893 22.2463 21.0974L22.2469 21.0968Z" fill="#AF285C"/>
</svg>
