<svg width="40" height="40" viewBox="0 0 40 40" fill="none" xmlns="http://www.w3.org/2000/svg">
<circle cx="20.5" cy="20.5" r="11.5" fill="#E4528B"/>
<path d="M36 0H4C1.79086 0 0 1.79086 0 4V36C0 38.2091 1.79086 40 4 40H36C38.2091 40 40 38.2091 40 36V4C40 1.79086 38.2091 0 36 0Z" fill="#F9D7E4"/>
<circle cx="20.5" cy="20.5" r="11.5" fill="#E4528B"/>
<path d="M20.5 9C14.1486 9 9 14.1486 9 20.5C9 26.8514 14.1486 32 20.5 32C26.8514 32 32 26.8514 32 20.5C32 14.1486 26.8514 9 20.5 9ZM20.5 10.6664C23.0053 10.6664 25.292 11.6036 27.0285 13.1458C25.7526 14.8288 23.8143 15.9494 21.8719 16.7079C20.7724 14.7053 19.5401 12.7786 18.1833 10.9406C18.9421 10.7577 19.7194 10.6656 20.5 10.6664ZM16.3163 11.5979C17.5985 13.516 18.8405 15.2945 19.975 17.3076C17.1058 18.0511 13.8633 18.4973 10.8682 18.5048C11.4995 15.4412 13.5574 12.8968 16.3163 11.5979ZM28.1193 14.2831C29.5403 16.0196 30.322 18.1913 30.3337 20.435C28.059 19.9865 25.7969 19.8692 23.4934 20.1015C23.2347 19.4558 22.9207 18.8423 22.62 18.181C24.6055 17.38 26.7284 16.0098 28.1193 14.2831ZM20.7737 18.8291C21.0198 19.3523 21.305 19.9078 21.5729 20.4753C18.3702 21.8875 14.9633 23.7746 13.1952 27.0832C11.4978 25.2048 10.5932 22.7424 10.6709 20.2119C14.1008 20.1958 17.4675 19.7669 20.7737 18.8291ZM25.9706 21.5103C27.4016 21.5106 28.8267 21.6942 30.2112 22.0565C29.9977 23.3884 29.5125 24.662 28.7857 25.7983C28.059 26.9346 27.1062 27.9092 25.9867 28.6616C25.4588 26.2609 24.9557 23.9638 24.0661 21.6477C24.6966 21.5558 25.3329 21.5097 25.97 21.5097L25.9706 21.5103ZM30.2624 21.6885C30.2554 21.7449 30.2491 21.8001 30.2411 21.8553C30.2491 21.7995 30.256 21.7443 30.2624 21.6885ZM22.2469 22.0968C23.153 24.4388 23.8643 27.032 24.3416 29.5557C23.1267 30.0711 21.8203 30.336 20.5006 30.3342C18.3143 30.3373 16.19 29.6086 14.4659 28.2642C16.2467 25.3754 19.005 23.1893 22.2463 22.0974L22.2469 22.0968Z" fill="#AF285C"/>
</svg>
