<svg width="38" height="38" viewBox="0 0 38 38" fill="none" xmlns="http://www.w3.org/2000/svg">
<path fill-rule="evenodd" clip-rule="evenodd" d="M13.6289 26.7835C15.1495 27.8436 16.999 28.4697 18.9931 28.4697C20.0006 28.4697 20.945 28.2646 21.8605 27.9751C21.6975 25.7574 21.2634 23.5686 20.6058 21.4614C17.8434 22.4479 15.3969 24.2763 13.6289 26.7835Z" fill="#212126"/>
<path fill-rule="evenodd" clip-rule="evenodd" d="M19.8992 19.4883C19.6728 18.9122 19.4361 18.3676 19.1704 17.8125C17.0737 18.7386 14.8006 19.2515 12.4699 19.2515C11.4938 19.2515 10.5073 19.128 9.53125 18.9937C9.53125 21.4719 10.4968 23.7002 12.0489 25.3865C14.072 22.611 16.8054 20.588 19.8992 19.4883Z" fill="#212126"/>
<path fill-rule="evenodd" clip-rule="evenodd" d="M24.2337 11.1114C22.7341 10.1144 20.9374 9.53027 18.9933 9.53027C18.1303 9.53027 17.3174 9.68286 16.5176 9.89858C17.8725 11.4719 19.0748 13.166 20.0823 14.976C21.6767 13.9895 23.084 12.6952 24.2337 11.1114Z" fill="#212126"/>
<path fill-rule="evenodd" clip-rule="evenodd" d="M18.2022 15.9309C17.1552 14.0709 15.9108 12.324 14.4718 10.7324C12.1514 12.0058 10.4151 14.205 9.79688 16.8569C12.6855 17.391 15.6029 17.0515 18.2022 15.9309Z" fill="#212126"/>
<path fill-rule="evenodd" clip-rule="evenodd" d="M22.6309 20.8849C23.257 22.9 23.6701 24.9651 23.8753 27.0723C26.093 25.7254 27.7372 23.5155 28.2739 20.8953C26.3718 20.5244 24.4592 20.5139 22.6309 20.8849Z" fill="#212126"/>
<path fill-rule="evenodd" clip-rule="evenodd" d="M21.0391 16.8463C21.3574 17.5146 21.6441 18.1933 21.9125 18.8799C24.0275 18.409 26.2374 18.3985 28.4473 18.7878C28.3946 16.3517 27.4081 14.1419 25.8481 12.4897C24.5117 14.2761 22.8779 15.7466 21.0391 16.8463Z" fill="#212126"/>
<path fill-rule="evenodd" clip-rule="evenodd" d="M19 0C8.50659 0 0 8.50659 0 19C0 29.4934 8.50659 38 19 38C29.4934 38 38 29.4934 38 19C38 8.50659 29.4934 0 19 0ZM18.9935 30.5767C12.6112 30.5767 7.42328 25.3756 7.42328 18.9934C7.42328 12.6112 12.6112 7.42328 18.9935 7.42328C25.3756 7.42328 30.5767 12.6112 30.5767 18.9934C30.5767 25.3756 25.3756 30.5767 18.9935 30.5767Z" fill="#212126"/>
</svg>
