<svg width="38" height="38" viewBox="0 0 38 38" fill="none" xmlns="http://www.w3.org/2000/svg">
<path d="M22.0645 37.7524C21.9062 37.7782 21.7473 37.802 21.5879 37.8238C21.7473 37.802 21.9062 37.7782 22.0645 37.7524Z" fill="#212126"/>
<path d="M22.4438 37.6875C22.3681 37.7014 22.2925 37.7142 22.2168 37.7272C22.2925 37.7142 22.3681 37.7014 22.4438 37.6875Z" fill="#212126"/>
<path d="M21.1622 37.877C20.9769 37.8978 20.7905 37.9164 20.6035 37.932C20.7905 37.9164 20.9769 37.8978 21.1622 37.877Z" fill="#212126"/>
<path d="M21.5276 37.832C21.4386 37.8439 21.3491 37.8549 21.2598 37.8654C21.3491 37.8549 21.4386 37.8439 21.5276 37.832Z" fill="#212126"/>
<path d="M22.9604 37.585C22.8937 37.5992 22.8267 37.6134 22.7598 37.627C22.8267 37.6134 22.8937 37.5992 22.9604 37.585Z" fill="#212126"/>
<path d="M24.2458 37.2661C24.1918 37.2815 24.1379 37.296 24.084 37.3111C24.1379 37.296 24.1918 37.2815 24.2458 37.2661Z" fill="#212126"/>
<path d="M23.856 37.3721C23.7974 37.3874 23.7385 37.4031 23.6797 37.4179C23.7385 37.4031 23.7974 37.3877 23.856 37.3721Z" fill="#212126"/>
<path d="M23.3494 37.499C23.2874 37.5135 23.2247 37.5271 23.1621 37.5411C23.2247 37.5271 23.2874 37.5135 23.3494 37.499Z" fill="#212126"/>
<path d="M20.5972 37.9326C20.4972 37.941 20.3972 37.9486 20.2969 37.9552C20.3972 37.9486 20.4972 37.941 20.5972 37.9326Z" fill="#212126"/>
<path d="M38 19C38 8.50819 29.4918 0 19 0C8.50819 0 0 8.50819 0 19C0 29.4918 8.50819 38 19 38C19.1116 38 19.2227 37.9977 19.334 37.9957V23.205H15.252V18.4477H19.334V14.947C19.334 10.887 21.8125 8.67722 25.4341 8.67722C27.1684 8.67722 28.6592 8.80652 29.0938 8.86421V13.1074H26.5964C24.6261 13.1074 24.2446 14.0439 24.2446 15.4178V18.4477H28.9557L28.3417 23.205H24.2446V37.2659C32.1863 34.9892 38 27.6726 38 19Z" fill="#212126"/>
<path d="M20.2556 37.9575C20.0579 37.9703 19.8593 37.9804 19.6602 37.9871C19.8593 37.9804 20.0579 37.9703 20.2556 37.9575Z" fill="#212126"/>
<path d="M19.6494 37.9878C19.5445 37.9913 19.4392 37.9939 19.334 37.9956C19.4392 37.9939 19.5445 37.9913 19.6494 37.9878Z" fill="#212126"/>
</svg>
