<svg width="24" height="20" viewBox="0 0 24 20" fill="none" xmlns="http://www.w3.org/2000/svg">
<path d="M6.20914 0.5C6.20915 0.5 6.20916 0.5 6.20917 0.5C6.95864 0.499953 7.7008 0.647483 8.39328 0.934178C9.08619 1.22105 9.71578 1.64164 10.2461 2.1719L11.1845 3.11029L11.5377 3.46355L11.8913 3.11058L12.8284 2.175C13.9045 1.135 15.3459 0.559085 16.8425 0.571344C18.3403 0.583613 19.7733 1.18407 20.8325 2.24322C21.8916 3.30238 22.4921 4.73537 22.5044 6.23319C22.5166 7.72968 21.9408 9.17108 20.9009 10.2471L11.729 19.4205L11.7286 19.4209C11.7036 19.446 11.6739 19.4659 11.6412 19.4794C11.6085 19.493 11.5734 19.5 11.538 19.5C11.5026 19.5 11.4676 19.493 11.4349 19.4794C11.4022 19.4659 11.3725 19.446 11.3475 19.4209L11.347 19.4205L2.17225 10.2457L2.17224 10.2457C1.37378 9.44731 0.830017 8.43007 0.609714 7.32263C0.389411 6.21518 0.502465 5.06728 0.934578 4.0241C1.36669 2.98091 2.09845 2.08929 3.03732 1.462C3.97577 0.834994 5.07901 0.500233 6.20763 0.5C6.20768 0.5 6.20773 0.5 6.20778 0.5C6.20801 0.5 6.20824 0.5 6.20848 0.5C6.2087 0.5 6.20892 0.5 6.20914 0.5Z" fill="#FF6666" stroke="#F9F9F9"/>
<path d="M4 8.50039C1.00004 5.49993 5.49999 0.999803 9 4.00039" stroke="#F9F9F9" stroke-linecap="round"/>
</svg>
