<svg width="38" height="38" viewBox="0 0 38 38" fill="none" xmlns="http://www.w3.org/2000/svg">
<path d="M22.6367 19C22.6367 21.0085 21.0085 22.6367 19 22.6367C16.9915 22.6367 15.3633 21.0085 15.3633 19C15.3633 16.9915 16.9915 15.3633 19 15.3633C21.0085 15.3633 22.6367 16.9915 22.6367 19Z" fill="#212126"/>
<path d="M27.5062 12.5655C27.3313 12.0918 27.0524 11.663 26.69 11.311C26.3381 10.9486 25.9096 10.6697 25.4356 10.4949C25.0511 10.3456 24.4736 10.1679 23.4099 10.1194C22.2592 10.067 21.9142 10.0557 19.0012 10.0557C16.0878 10.0557 15.7428 10.0667 14.5924 10.1192C13.5287 10.1679 12.9509 10.3456 12.5667 10.4949C12.0927 10.6697 11.6639 10.9486 11.3123 11.311C10.9499 11.663 10.671 12.0915 10.4959 12.5655C10.3466 12.9499 10.1688 13.5277 10.1204 14.5914C10.0679 15.7418 10.0566 16.0868 10.0566 19.0002C10.0566 21.9133 10.0679 22.2583 10.1204 23.4089C10.1688 24.4727 10.3466 25.0502 10.4959 25.4346C10.671 25.9086 10.9496 26.3371 11.312 26.6891C11.6639 27.0515 12.0924 27.3304 12.5665 27.5052C12.9509 27.6548 13.5287 27.8325 14.5924 27.8809C15.7428 27.9334 16.0875 27.9444 19.0009 27.9444C21.9145 27.9444 22.2595 27.9334 23.4096 27.8809C24.4733 27.8325 25.0511 27.6548 25.4356 27.5052C26.3871 27.1382 27.1391 26.3861 27.5062 25.4346C27.6555 25.0502 27.8332 24.4727 27.8819 23.4089C27.9344 22.2583 27.9454 21.9133 27.9454 19.0002C27.9454 16.0868 27.9344 15.7418 27.8819 14.5914C27.8335 13.5277 27.6558 12.9499 27.5062 12.5655ZM19.0012 24.6022C15.9069 24.6022 13.3985 22.0942 13.3985 18.9999C13.3985 15.9056 15.9069 13.3975 19.0012 13.3975C22.0952 13.3975 24.6035 15.9056 24.6035 18.9999C24.6035 22.0942 22.0952 24.6022 19.0012 24.6022ZM24.825 14.4853C24.102 14.4853 23.5157 13.8991 23.5157 13.176C23.5157 12.453 24.102 11.8668 24.825 11.8668C25.5481 11.8668 26.1343 12.453 26.1343 13.176C26.134 13.8991 25.5481 14.4853 24.825 14.4853Z" fill="#212126"/>
<path d="M19 0C8.50819 0 0 8.50819 0 19C0 29.4918 8.50819 38 19 38C29.4918 38 38 29.4918 38 19C38 8.50819 29.4918 0 19 0ZM29.8443 23.4981C29.7916 24.6595 29.6069 25.4524 29.3373 26.1465C28.7705 27.612 27.612 28.7705 26.1465 29.3373C25.4527 29.6069 24.6595 29.7913 23.4984 29.8443C22.3349 29.8974 21.9632 29.9102 19.0003 29.9102C16.037 29.9102 15.6657 29.8974 14.5019 29.8443C13.3408 29.7913 12.5476 29.6069 11.8538 29.3373C11.1256 29.0633 10.4663 28.6339 9.92125 28.0788C9.36635 27.534 8.93698 26.8744 8.66301 26.1465C8.39339 25.4527 8.20871 24.6595 8.15594 23.4984C8.10231 22.3346 8.08984 21.963 8.08984 19C8.08984 16.037 8.10231 15.6654 8.15565 14.5019C8.20842 13.3405 8.39281 12.5476 8.66243 11.8535C8.9364 11.1256 9.36606 10.466 9.92125 9.92125C10.466 9.36606 11.1256 8.93669 11.8535 8.66272C12.5476 8.3931 13.3405 8.20871 14.5019 8.15565C15.6654 8.1026 16.037 8.08984 19 8.08984C21.963 8.08984 22.3346 8.1026 23.4981 8.15594C24.6595 8.20871 25.4524 8.3931 26.1465 8.66243C26.8744 8.9364 27.534 9.36606 28.079 9.92125C28.6339 10.4663 29.0636 11.1256 29.3373 11.8535C29.6072 12.5476 29.7916 13.3405 29.8446 14.5019C29.8977 15.6654 29.9102 16.037 29.9102 19C29.9102 21.963 29.8977 22.3346 29.8443 23.4981Z" fill="#212126"/>
</svg>
