<svg width="60" height="60" viewBox="0 0 60 60" fill="none" xmlns="http://www.w3.org/2000/svg">
<path d="M42.1211 14.5026V10.4231C42.1211 10.0695 41.7147 9.87419 41.4403 10.0906L17.6492 28.6727C17.4471 28.8299 17.2835 29.0312 17.171 29.2612C17.0585 29.4912 17 29.7439 17 30C17 30.2561 17.0585 30.5088 17.171 30.7388C17.2835 30.9688 17.4471 31.1701 17.6492 31.3273L41.4403 49.9094C41.72 50.1258 42.1211 49.9305 42.1211 49.5769V45.4974C42.1211 45.2388 41.9997 44.9908 41.7991 44.8325L22.8001 30.0026L41.7991 15.1675C41.9997 15.0092 42.1211 14.7612 42.1211 14.5026Z" fill="#C4C4C4"/>
</svg>
