<svg width="39" height="39" viewBox="0 0 39 39" fill="none" xmlns="http://www.w3.org/2000/svg">
<path d="M35.5 0H3.5C1.567 0 0 1.567 0 3.5V35.5C0 37.433 1.567 39 3.5 39H35.5C37.433 39 39 37.433 39 35.5V3.5C39 1.567 37.433 0 35.5 0Z" fill="#F2F2F2"/>
<path d="M30.3 9H8.7C7.215 9 6.0135 10.2375 6.0135 11.75L6 28.25C6 29.7625 7.215 31 8.7 31H30.3C31.785 31 33 29.7625 33 28.25V11.75C33 10.2375 31.785 9 30.3 9ZM29.76 14.8438L20.2155 20.9213C19.7835 21.1963 19.2165 21.1963 18.7845 20.9213L9.24 14.8438C9.10463 14.7664 8.98609 14.6618 8.89155 14.5364C8.79701 14.411 8.72843 14.2673 8.68998 14.1141C8.65152 13.961 8.64398 13.8014 8.66781 13.6452C8.69164 13.4889 8.74635 13.3392 8.82863 13.2052C8.91091 13.0711 9.01904 12.9554 9.14648 12.8651C9.27392 12.7748 9.41803 12.7118 9.57007 12.6799C9.72211 12.648 9.87893 12.6478 10.031 12.6794C10.1831 12.711 10.3274 12.7737 10.455 12.8637L19.5 18.625L28.545 12.8637C28.6726 12.7737 28.8169 12.711 28.969 12.6794C29.1211 12.6478 29.2779 12.648 29.4299 12.6799C29.582 12.7118 29.7261 12.7748 29.8535 12.8651C29.981 12.9554 30.0891 13.0711 30.1714 13.2052C30.2536 13.3392 30.3084 13.4889 30.3322 13.6452C30.356 13.8014 30.3485 13.961 30.31 14.1141C30.2716 14.2673 30.203 14.411 30.1085 14.5364C30.0139 14.6618 29.8954 14.7664 29.76 14.8438V14.8438Z" fill="#3581B8"/>
</svg>
