<svg width="38" height="38" viewBox="0 0 38 38" fill="none" xmlns="http://www.w3.org/2000/svg">
<path fill-rule="evenodd" clip-rule="evenodd" d="M38 19C38 29.4928 29.4928 38 19 38C8.50725 38 0 29.4928 0 19C0 8.50725 8.50725 0 19 0C29.4928 0 38 8.50725 38 19ZM31.1727 17.5085C31.4798 17.9471 31.654 18.4648 31.673 19C31.6813 19.5236 31.5411 20.0388 31.2688 20.486C30.9964 20.9332 30.603 21.2941 30.134 21.527C30.1562 21.8057 30.1562 22.0843 30.134 22.363C30.134 26.619 25.175 30.077 19.057 30.077C12.939 30.077 7.98 26.619 7.98 22.363C7.95861 22.0847 7.95861 21.8053 7.98 21.527C7.61769 21.3574 7.2964 21.1114 7.03822 20.8058C6.78003 20.5002 6.59108 20.1423 6.48434 19.7568C6.37761 19.3713 6.35562 18.9672 6.41989 18.5723C6.48417 18.1775 6.63318 17.8012 6.85668 17.4695C7.08018 17.1377 7.37288 16.8582 7.71465 16.6503C8.05642 16.4424 8.43916 16.3109 8.83656 16.265C9.23395 16.2191 9.63658 16.2597 10.0168 16.3842C10.397 16.5086 10.7457 16.714 11.039 16.986C13.2283 15.5012 15.804 14.6889 18.449 14.649L19.855 8.056C19.8708 7.97967 19.9016 7.90724 19.9456 7.8429C19.9895 7.77856 20.0459 7.72359 20.1113 7.68117C20.1766 7.63876 20.2498 7.60974 20.3265 7.59581C20.4032 7.58187 20.4819 7.5833 20.558 7.6L25.213 8.531C25.4403 8.14043 25.7994 7.84368 26.2258 7.69401C26.6522 7.54434 27.118 7.55155 27.5396 7.71435C27.9612 7.87716 28.3109 8.18489 28.526 8.58231C28.7411 8.97973 28.8076 9.44082 28.7134 9.8828C28.6192 10.3248 28.3705 10.7187 28.0121 10.9939C27.6536 11.2691 27.2088 11.4075 26.7575 11.3843C26.3062 11.361 25.8779 11.1777 25.5496 10.8672C25.2212 10.5567 25.0143 10.1393 24.966 9.69L20.9 8.835L19.665 14.763C22.2779 14.8191 24.8186 15.6308 26.98 17.1C27.2685 16.8226 27.6137 16.6109 27.9918 16.4796C28.3699 16.3483 28.772 16.3004 29.1704 16.3392C29.5687 16.378 29.954 16.5026 30.2996 16.7045C30.6453 16.9063 30.9431 17.1806 31.1727 17.5085V17.5085ZM12.9928 19.8439C12.8541 20.0514 12.7577 20.2842 12.709 20.529C12.6603 20.7738 12.6602 21.0258 12.7089 21.2706C12.8072 21.765 13.0978 22.2001 13.5169 22.4802C13.936 22.7603 14.4492 22.8624 14.9436 22.7641C15.1884 22.7154 15.4212 22.619 15.6287 22.4804C15.8363 22.3418 16.0145 22.1636 16.1532 21.9561C16.4333 21.537 16.5354 21.0238 16.4371 20.5294C16.3388 20.035 16.0482 19.5999 15.6291 19.3198C15.21 19.0397 14.6968 18.9376 14.2024 19.0359C13.708 19.1342 13.2729 19.4248 12.9928 19.8439ZM19.019 27.588C20.7053 27.6577 22.3646 27.2175 23.712 26.201C23.8128 26.1027 23.8704 25.9685 23.8722 25.8277C23.874 25.687 23.8198 25.5513 23.7215 25.4505C23.6728 25.4006 23.6148 25.3608 23.5508 25.3333C23.4867 25.3058 23.4179 25.2912 23.3482 25.2903C23.2075 25.2885 23.0718 25.3427 22.971 25.441C21.8179 26.2682 20.417 26.6771 19 26.6C17.5847 26.6632 16.1903 26.2409 15.048 25.403C14.9496 25.3222 14.8246 25.2809 14.6974 25.2872C14.5702 25.2934 14.4499 25.3467 14.3598 25.4368C14.2697 25.5269 14.2164 25.6472 14.2102 25.7744C14.2039 25.9016 14.2452 26.0266 14.326 26.125C15.674 27.1408 17.3325 27.6579 19.019 27.588V27.588ZM22.3139 22.5562C22.6274 22.7652 22.9758 22.952 23.351 22.952C23.6087 22.955 23.8643 22.9055 24.1023 22.8065C24.3402 22.7076 24.5555 22.5612 24.7351 22.3763C24.9146 22.1914 25.0546 21.9719 25.1466 21.7312C25.2386 21.4904 25.2806 21.2335 25.27 20.976C25.2699 20.6478 25.1847 20.3252 25.0229 20.0397C24.861 19.7542 24.628 19.5155 24.3465 19.3468C24.0649 19.1782 23.7445 19.0853 23.4164 19.0773C23.0883 19.0693 22.7637 19.1464 22.4743 19.3011C22.1849 19.4558 21.9404 19.6829 21.7648 19.9601C21.5892 20.2374 21.4885 20.5554 21.4723 20.8832C21.4562 21.211 21.5252 21.5374 21.6727 21.8306C21.8202 22.1238 22.0411 22.3737 22.3139 22.5562V22.5562Z" fill="#336699"/>
</svg>
