<svg width="54" height="60" viewBox="0 0 54 60" fill="none" xmlns="http://www.w3.org/2000/svg">
<path d="M36.8612 28.67L15.7162 10.0901C15.6609 10.0412 15.5945 10.0108 15.5246 10.0024C15.4547 9.99398 15.3841 10.0079 15.3209 10.0427C15.2577 10.0774 15.2045 10.1314 15.1674 10.1986C15.1303 10.2658 15.1108 10.3435 15.1111 10.4226V14.5016C15.1111 14.7602 15.219 15.0082 15.3972 15.1665L32.2832 29.9998L15.3972 44.8331C15.2143 44.9914 15.1111 45.2394 15.1111 45.498V49.577C15.1111 49.9305 15.4723 50.1258 15.7162 49.9094L36.8612 31.3296C37.0409 31.1718 37.1863 30.9701 37.2863 30.7397C37.3863 30.5092 37.4383 30.2562 37.4383 29.9998C37.4383 29.7434 37.3863 29.4903 37.2863 29.2599C37.1863 29.0295 37.0409 28.8277 36.8612 28.67Z" fill="#C4C4C4"/>
</svg>
