<svg width="40" height="40" viewBox="0 0 40 40" fill="none" xmlns="http://www.w3.org/2000/svg">
<path d="M36 0.5H4C2.067 0.5 0.5 2.067 0.5 4V36C0.5 37.933 2.067 39.5 4 39.5H36C37.933 39.5 39.5 37.933 39.5 36V4C39.5 2.067 37.933 0.5 36 0.5Z" fill="#DFEFFC"/>
<path d="M34 10.7321C32.9703 11.1812 31.8498 11.5045 30.6956 11.6303C31.8939 10.9105 32.7913 9.77332 33.2193 8.43211C32.0949 9.10847 30.863 9.58274 29.5784 9.83389C29.0415 9.25353 28.3922 8.7912 27.6708 8.47569C26.9495 8.16018 26.1716 7.99826 25.3857 8.00001C22.2057 8.00001 19.6484 10.6062 19.6484 13.8044C19.6484 14.2536 19.7022 14.7027 19.7897 15.1348C15.0282 14.883 10.7816 12.583 7.95842 9.06155C7.444 9.94996 7.17442 10.9615 7.17774 11.991C7.17774 14.0052 8.1906 15.7812 9.73513 16.8257C8.82492 16.7895 7.93602 16.5365 7.14073 16.0874V16.1589C7.14073 18.9794 9.11261 21.3169 11.7407 21.8544C11.2472 21.984 10.7396 22.0503 10.2298 22.0518C9.85627 22.0518 9.50294 22.0144 9.14626 21.9633C9.87309 24.2633 11.9897 25.9339 14.51 25.9883C12.5382 27.55 10.0683 28.4686 7.38637 28.4686C6.90518 28.4686 6.461 28.4516 6 28.3972C8.54393 30.0473 11.5623 31 14.8129 31C25.3655 31 31.1398 22.1607 31.1398 14.4883C31.1398 14.2365 31.1398 13.9848 31.1229 13.733C32.2401 12.9062 33.2193 11.8821 34 10.7321Z" fill="#55ACEE"/>
</svg>
